<?xml version="1.0" encoding="UTF-8"?>
<!DOCTYPE svg PUBLIC "-//W3C//DTD SVG 1.1//EN" "http://www.w3.org/Graphics/SVG/1.1/DTD/svg11.dtd">
<svg xmlns="http://www.w3.org/2000/svg" version="1.1" width="7211px" height="4108px" style="shape-rendering:geometricPrecision; text-rendering:geometricPrecision; image-rendering:optimizeQuality; fill-rule:evenodd; clip-rule:evenodd" xmlns:xlink="http://www.w3.org/1999/xlink">
<g><path style="opacity:1" fill="#5c321e" d="M 5587.5,158.5 C 5589.5,161.515 5591.83,163.515 5594.5,164.5C 5599.38,168.04 5605.38,171.707 5612.5,175.5C 5615.99,177.978 5618.66,181.145 5620.5,185C 5622.69,185.926 5624.69,187.093 5626.5,188.5C 5627.69,189.364 5628.85,190.364 5630,191.5C 5630.33,191.167 5630.67,190.833 5631,190.5C 5631.5,191.667 5632.33,192.5 5633.5,193C 5633.17,193.333 5632.83,193.667 5632.5,194C 5634.88,194.223 5636.55,195.39 5637.5,197.5C 5636.17,197.833 5636.17,198.167 5637.5,198.5C 5641.87,203.217 5646.37,207.217 5651,210.5C 5651.69,213.057 5653.19,214.891 5655.5,216C 5655.17,216.333 5654.83,216.667 5654.5,217C 5660.95,220.072 5664.95,224.738 5666.5,231C 5669.18,231.968 5671.52,233.968 5673.5,237C 5673.17,237.333 5672.83,237.667 5672.5,238C 5680.2,242.533 5685.53,249.033 5688.5,257.5C 5690.61,260.027 5692.94,262.36 5695.5,264.5C 5697.27,267.097 5698.61,269.431 5699.5,271.5C 5700.85,272.601 5702.35,273.601 5704,274.5C 5704.62,275.449 5704.45,276.282 5703.5,277C 5706.65,280.309 5709.32,283.976 5711.5,288C 5710.43,289.159 5710.77,289.992 5712.5,290.5C 5716.21,294.235 5719.21,298.569 5721.5,303.5C 5720.17,303.833 5720.17,304.167 5721.5,304.5C 5724.98,308.112 5727.48,312.445 5729,317.5C 5731.67,320.833 5734.33,324.167 5737,327.5C 5737.62,328.449 5737.45,329.282 5736.5,330C 5738.66,333.07 5740.66,336.236 5742.5,339.5C 5741.17,339.833 5741.17,340.167 5742.5,340.5C 5747.78,348.394 5752.45,357.727 5756.5,368.5C 5755.17,368.833 5755.17,369.167 5756.5,369.5C 5758.75,371.869 5761.25,373.202 5764,373.5C 5770.26,371.499 5776.59,368.832 5783,365.5C 5783.33,365.833 5783.67,366.167 5784,366.5C 5789.16,364.008 5793.99,361.675 5798.5,359.5C 5799.69,360.653 5800.69,360.653 5801.5,359.5C 5803.02,359.489 5804.18,358.823 5805,357.5C 5807.87,357.566 5810.7,357.566 5813.5,357.5C 5815.86,355.638 5818.53,354.471 5821.5,354C 5820.3,353.346 5820.3,352.846 5821.5,352.5C 5824.3,353.438 5827.3,353.104 5830.5,351.5C 5831.56,349.705 5833.4,348.705 5836,348.5C 5838.71,349.219 5841.21,348.552 5843.5,346.5C 5844.91,347.668 5846.07,347.335 5847,345.5C 5848.67,345.833 5850.33,346.167 5852,346.5C 5853.82,344.559 5855.82,343.892 5858,344.5C 5859.62,343.901 5861.12,343.234 5862.5,342.5C 5864.64,342.31 5866.98,342.144 5869.5,342C 5868.66,340.334 5869.16,340.167 5871,341.5C 5871.67,340.833 5872.33,340.167 5873,339.5C 5875.09,340.246 5877.09,340.579 5879,340.5C 5881.21,339.35 5883.38,338.35 5885.5,337.5C 5887.93,337.227 5890.09,337.56 5892,338.5C 5893.49,336.84 5895.32,335.84 5897.5,335.5C 5898.17,336.833 5898.83,336.833 5899.5,335.5C 5902.92,335.123 5906.09,335.123 5909,335.5C 5909.63,333.009 5910.46,333.009 5911.5,335.5C 5913.74,334.36 5915.91,334.36 5918,335.5C 5920.62,334.347 5923.28,333.347 5926,332.5C 5929.93,332.19 5933.6,332.19 5937,332.5C 5937.67,331.833 5938.33,331.167 5939,330.5C 5945.01,331.084 5950.34,331.751 5955,332.5C 5956.15,331.257 5957.49,330.257 5959,329.5C 5960.4,330.051 5961.73,330.384 5963,330.5C 5963.67,329.833 5964.33,329.167 5965,328.5C 5969.3,329.685 5973.63,330.685 5978,331.5C 5982.6,331.41 5987.27,331.41 5992,331.5C 5992.67,330.833 5993.33,330.167 5994,329.5C 5995.81,329.888 5997.47,329.888 5999,329.5C 6007.22,331.411 6015.56,333.078 6024,334.5C 6028.59,333.896 6033.26,333.563 6038,333.5C 6050.28,337.421 6062.61,341.087 6075,344.5C 6076.66,344.676 6078.33,344.009 6080,342.5C 6082,343.833 6084,343.833 6086,342.5C 6118.02,351.734 6149.19,363.567 6179.5,378C 6186.52,381.2 6192.85,385.366 6198.5,390.5C 6206.06,396.114 6214.23,400.781 6223,404.5C 6223.33,404.167 6223.67,403.833 6224,403.5C 6224.37,404.416 6224.87,405.25 6225.5,406C 6228.03,406.514 6230.19,407.68 6232,409.5C 6232.33,409.167 6232.67,408.833 6233,408.5C 6235.17,410.866 6237.34,413.199 6239.5,415.5C 6245.11,421.376 6251.45,425.543 6258.5,428C 6261.94,431.596 6265.27,434.596 6268.5,437C 6268.17,437.333 6267.83,437.667 6267.5,438C 6269.61,438.503 6271.61,439.836 6273.5,442C 6273.17,442.333 6272.83,442.667 6272.5,443C 6274.06,443.318 6275.23,444.151 6276,445.5C 6276.33,445.167 6276.67,444.833 6277,444.5C 6279.9,448.069 6283.4,450.902 6287.5,453C 6293.08,460.275 6299.25,466.108 6306,470.5C 6306.83,472.5 6307.67,474.5 6308.5,476.5C 6311.68,480.476 6315.52,483.809 6320,486.5C 6323.03,492.617 6326.86,497.283 6331.5,500.5C 6333.1,501.596 6334.6,502.93 6336,504.5C 6336.62,505.449 6336.45,506.282 6335.5,507C 6337.18,508.209 6338.52,509.709 6339.5,511.5C 6338.17,511.833 6338.17,512.167 6339.5,512.5C 6340.26,513.268 6341.26,513.768 6342.5,514C 6341.35,514.914 6341.51,515.747 6343,516.5C 6343.33,516.167 6343.67,515.833 6344,515.5C 6346.77,520.596 6350.27,525.096 6354.5,529C 6354.17,529.333 6353.83,529.667 6353.5,530C 6356.19,532.027 6358.53,534.361 6360.5,537C 6360.17,537.333 6359.83,537.667 6359.5,538C 6361.84,540.677 6364.18,543.343 6366.5,546C 6366.17,546.333 6365.83,546.667 6365.5,547C 6366.58,547.956 6367.75,548.789 6369,549.5C 6374.1,559.204 6379.77,568.537 6386,577.5C 6396.42,597.329 6405.92,617.329 6414.5,637.5C 6414.29,638.086 6413.96,638.586 6413.5,639C 6417.92,646.895 6421.59,655.228 6424.5,664C 6424.89,669.151 6426.56,674.151 6429.5,679C 6428.54,680.147 6428.88,681.147 6430.5,682C 6429.95,683.398 6429.62,684.732 6429.5,686C 6431.75,688.427 6432.41,691.094 6431.5,694C 6433.42,697.855 6435.09,701.855 6436.5,706C 6436.04,709.418 6436.04,713.084 6436.5,717C 6437.17,717.333 6437.83,717.667 6438.5,718C 6438.17,720.333 6437.83,722.667 6437.5,725C 6438.83,725.667 6439.83,726.667 6440.5,728C 6440.87,730.552 6440.87,733.219 6440.5,736C 6441.61,741.099 6442.94,746.433 6444.5,752C 6444.46,758.043 6444.46,764.043 6444.5,770C 6445.8,772.588 6446.8,775.088 6447.5,777.5C 6446.93,782.347 6446.6,787.514 6446.5,793C 6447.17,795 6447.83,797 6448.5,799C 6447.98,809.242 6447.65,819.742 6447.5,830.5C 6447.97,832.568 6448.63,834.568 6449.5,836.5C 6448.87,840.519 6448.87,844.353 6449.5,848C 6447.67,848.928 6447.33,850.094 6448.5,851.5C 6447.03,855.567 6446.03,859.734 6445.5,864C 6447.28,868.957 6447.95,873.957 6447.5,879C 6446.96,882.473 6445.96,885.806 6444.5,889C 6445.48,890.779 6445.15,892.445 6443.5,894C 6443.49,895.583 6443.83,897.249 6444.5,899C 6442.67,899.928 6442.33,901.094 6443.5,902.5C 6441.87,905.669 6440.54,909.002 6439.5,912.5C 6440.43,918.118 6440.76,923.618 6440.5,929C 6438.67,929.928 6438.33,931.094 6439.5,932.5C 6425.34,990.263 6404.18,1045.93 6376,1099.5C 6365.96,1114.26 6356.46,1129.26 6347.5,1144.5C 6346.8,1146.71 6345.47,1148.54 6343.5,1150C 6343.83,1150.33 6344.17,1150.67 6344.5,1151C 6342.32,1151.44 6341.65,1152.44 6342.5,1154C 6334.92,1160.81 6328.25,1168.48 6322.5,1177C 6322.83,1177.33 6323.17,1177.67 6323.5,1178C 6320.64,1179.69 6318.31,1181.86 6316.5,1184.5C 6311.06,1190.55 6306.06,1196.22 6301.5,1201.5C 6299.59,1203.66 6297.92,1205.99 6296.5,1208.5C 6296.17,1207.17 6295.83,1207.17 6295.5,1208.5C 6294.83,1208.5 6294.5,1208.83 6294.5,1209.5C 6289.59,1214.13 6285.76,1219.13 6283,1224.5C 6282.59,1224.04 6282.09,1223.71 6281.5,1223.5C 6275.59,1229.69 6269.92,1236.03 6264.5,1242.5C 6261.79,1244.23 6259.12,1245.9 6256.5,1247.5C 6255.83,1247.5 6255.5,1247.83 6255.5,1248.5C 6253.83,1250.19 6252.5,1252.19 6251.5,1254.5C 6249.12,1256.55 6246.79,1258.55 6244.5,1260.5C 6244.17,1259.17 6243.83,1259.17 6243.5,1260.5C 6242.05,1261.62 6241.05,1263.12 6240.5,1265C 6239.18,1264.85 6238.01,1265.02 6237,1265.5C 6233.85,1269.68 6230.85,1273.35 6228,1276.5C 6226.93,1275.72 6225.76,1275.89 6224.5,1277C 6225.34,1278.67 6224.84,1278.83 6223,1277.5C 6221.51,1278.25 6221.35,1279.09 6222.5,1280C 6221.21,1280.49 6219.87,1280.66 6218.5,1280.5C 6217.84,1282.87 6216.5,1284.87 6214.5,1286.5C 6212.87,1286.97 6211.7,1287.97 6211,1289.5C 6210.67,1289.17 6210.33,1288.83 6210,1288.5C 6202.91,1294.92 6195.74,1301.25 6188.5,1307.5C 6188.17,1306.17 6187.83,1306.17 6187.5,1307.5C 6186.4,1308.85 6185.4,1310.35 6184.5,1312C 6182.63,1310.99 6181.3,1311.49 6180.5,1313.5C 6177.89,1314.45 6175.89,1316.12 6174.5,1318.5C 6174.17,1317.17 6173.83,1317.17 6173.5,1318.5C 6172.17,1318.83 6172.17,1319.17 6173.5,1319.5C 6172.81,1320.77 6171.98,1320.77 6171,1319.5C 6168.83,1323.23 6165.66,1325.73 6161.5,1327C 6158.06,1329.55 6155.06,1332.39 6152.5,1335.5C 6150.14,1337.36 6147.47,1338.53 6144.5,1339C 6142.31,1340.77 6140.65,1342.27 6139.5,1343.5C 6139.17,1342.17 6138.83,1342.17 6138.5,1343.5C 6137.29,1343.93 6136.29,1344.6 6135.5,1345.5C 6134.5,1346.5 6133.5,1347.5 6132.5,1348.5C 6128.23,1350.65 6124.23,1353.31 6120.5,1356.5C 6120.17,1355.17 6119.83,1355.17 6119.5,1356.5C 6118.83,1356.5 6118.5,1356.83 6118.5,1357.5C 6116.88,1359.12 6115.21,1360.79 6113.5,1362.5C 6111.97,1361.58 6110.64,1361.91 6109.5,1363.5C 6107.64,1365.47 6104.97,1367.13 6101.5,1368.5C 6101.17,1367.17 6100.83,1367.17 6100.5,1368.5C 6099.26,1369.66 6097.93,1370.66 6096.5,1371.5C 6095.83,1371.5 6095.5,1371.83 6095.5,1372.5C 6086.32,1379.23 6076.99,1384.39 6067.5,1388C 6065.38,1389.12 6063.54,1390.62 6062,1392.5C 6060.87,1391.4 6060.04,1391.73 6059.5,1393.5C 6054.43,1396.41 6049.27,1399.07 6044,1401.5C 6043.67,1401.17 6043.33,1400.83 6043,1400.5C 6042.72,1401.42 6042.22,1402.08 6041.5,1402.5C 6041.17,1401.17 6040.83,1401.17 6040.5,1402.5C 6039.17,1402.83 6039.17,1403.17 6040.5,1403.5C 6036.75,1404.97 6033.08,1406.64 6029.5,1408.5C 6028.51,1408.33 6027.84,1408.66 6027.5,1409.5C 6020.96,1412.23 6015.3,1415.57 6010.5,1419.5C 6004.71,1419.06 6000.21,1421.39 5997,1426.5C 5995.16,1425.17 5994.66,1425.33 5995.5,1427C 5994.26,1427.79 5992.92,1428.29 5991.5,1428.5C 5991.17,1427.17 5990.83,1427.17 5990.5,1428.5C 5987.55,1429.83 5984.55,1431.5 5981.5,1433.5C 5980.51,1433.33 5979.84,1433.66 5979.5,1434.5C 5976.62,1435.54 5973.95,1436.87 5971.5,1438.5C 5970.83,1437.17 5970.17,1437.17 5969.5,1438.5C 5968.83,1438.5 5968.5,1438.83 5968.5,1439.5C 5967.78,1439.92 5967.28,1440.58 5967,1441.5C 5966.02,1440.23 5965.19,1440.23 5964.5,1441.5C 5962.6,1441.8 5960.93,1442.46 5959.5,1443.5C 5958.5,1444.17 5957.5,1444.83 5956.5,1445.5C 5956.17,1444.17 5955.83,1444.17 5955.5,1445.5C 5954.83,1445.5 5954.5,1445.83 5954.5,1446.5C 5953.51,1446.33 5952.84,1446.66 5952.5,1447.5C 5946.63,1450.8 5940.63,1453.8 5934.5,1456.5C 5933.83,1455.17 5933.17,1455.17 5932.5,1456.5C 5926.69,1459.32 5920.85,1462.32 5915,1465.5C 5914.67,1465.17 5914.33,1464.83 5914,1464.5C 5913.63,1465.42 5913.13,1466.25 5912.5,1467C 5909.8,1467.76 5907.3,1468.93 5905,1470.5C 5904.67,1470.17 5904.33,1469.83 5904,1469.5C 5900.44,1471.69 5896.78,1473.69 5893,1475.5C 5891.33,1475.5 5889.67,1475.5 5888,1475.5C 5881.54,1478.86 5876.04,1481.86 5871.5,1484.5C 5870.83,1483.17 5870.17,1483.17 5869.5,1484.5C 5861.45,1488.55 5853.45,1491.89 5845.5,1494.5C 5845.17,1493.17 5844.83,1493.17 5844.5,1494.5C 5840.9,1496.88 5837.06,1498.88 5833,1500.5C 5832.67,1500.17 5832.33,1499.83 5832,1499.5C 5827.27,1501.66 5822.43,1503.66 5817.5,1505.5C 5817.17,1504.17 5816.83,1504.17 5816.5,1505.5C 5815.53,1505.99 5814.53,1506.49 5813.5,1507C 5814.34,1508.67 5813.84,1508.83 5812,1507.5C 5807.04,1510.93 5801.87,1512.93 5796.5,1513.5C 5795.08,1513.71 5793.74,1514.21 5792.5,1515C 5793.7,1515.65 5793.7,1516.15 5792.5,1516.5C 5791.55,1515.67 5790.55,1515.51 5789.5,1516C 5789.83,1516.33 5790.17,1516.67 5790.5,1517C 5789.5,1517.5 5788.5,1518 5787.5,1518.5C 5785.52,1519.13 5783.36,1519.13 5781,1518.5C 5778.24,1519.79 5775.74,1521.46 5773.5,1523.5C 5772.91,1523.29 5772.41,1522.96 5772,1522.5C 5770.2,1524.84 5768.04,1525.5 5765.5,1524.5C 5758.59,1527.8 5751.76,1530.8 5745,1533.5C 5744.67,1533.17 5744.33,1532.83 5744,1532.5C 5742.11,1534.65 5739.94,1535.32 5737.5,1534.5C 5736.3,1534.85 5736.3,1535.35 5737.5,1536C 5736.91,1536.46 5736.24,1536.63 5735.5,1536.5C 5735.17,1535.17 5734.83,1535.17 5734.5,1536.5C 5730.02,1538.87 5726.02,1540.2 5722.5,1540.5C 5722.03,1541.73 5720.69,1542.73 5718.5,1543.5C 5716.26,1543.31 5714.1,1543.31 5712,1543.5C 5705.8,1546.26 5699.8,1549.26 5694,1552.5C 5692.51,1551.27 5691.01,1551.27 5689.5,1552.5C 5689.17,1551.17 5688.83,1551.17 5688.5,1552.5C 5685.25,1552.97 5682.42,1554.3 5680,1556.5C 5678.95,1555.48 5677.78,1555.32 5676.5,1556C 5671.07,1560.1 5665.4,1561.93 5659.5,1561.5C 5658.5,1563.54 5657.16,1563.88 5655.5,1562.5C 5654.02,1563.48 5652.69,1564.65 5651.5,1566C 5649.66,1565.93 5647.99,1566.1 5646.5,1566.5C 5646.17,1565.17 5645.83,1565.17 5645.5,1566.5C 5641.62,1568.91 5637.62,1570.24 5633.5,1570.5C 5633.17,1569.17 5632.83,1569.17 5632.5,1570.5C 5630.42,1570.97 5628.42,1571.64 5626.5,1572.5C 5626.17,1571.17 5625.83,1571.17 5625.5,1572.5C 5621.44,1572.74 5617.44,1574.07 5613.5,1576.5C 5612.02,1576.79 5610.36,1576.79 5608.5,1576.5C 5605.85,1578.66 5602.85,1579.99 5599.5,1580.5C 5599.17,1579.17 5598.83,1579.17 5598.5,1580.5C 5593.38,1580.97 5588.05,1582.97 5582.5,1586.5C 5581.47,1585.21 5580.47,1585.21 5579.5,1586.5C 5579.17,1585.17 5578.83,1585.17 5578.5,1586.5C 5572.5,1589.77 5566.84,1591.77 5561.5,1592.5C 5559.98,1592.51 5558.82,1593.18 5558,1594.5C 5556.73,1594.38 5555.4,1594.05 5554,1593.5C 5553.72,1594.42 5553.22,1595.08 5552.5,1595.5C 5551.83,1594.17 5551.17,1594.17 5550.5,1595.5C 5549.5,1596.17 5548.5,1596.83 5547.5,1597.5C 5547.17,1596.17 5546.83,1596.17 5546.5,1597.5C 5541.42,1598.04 5536.75,1599.71 5532.5,1602.5C 5530.74,1602.69 5528.9,1602.69 5527,1602.5C 5523.82,1604.53 5520.49,1606.2 5517,1607.5C 5516.01,1606.83 5514.85,1606.83 5513.5,1607.5C 5513.17,1606.17 5512.83,1606.17 5512.5,1607.5C 5509.89,1608.59 5507.23,1609.59 5504.5,1610.5C 5502.06,1609.68 5499.89,1610.35 5498,1612.5C 5495.79,1612.38 5493.62,1612.38 5491.5,1612.5C 5490.25,1614.48 5488.75,1614.81 5487,1613.5C 5485.54,1615.42 5483.87,1616.09 5482,1615.5C 5481.68,1617.3 5481.02,1617.63 5480,1616.5C 5477.13,1618.46 5474.13,1620.13 5471,1621.5C 5469.98,1620.37 5469.32,1620.7 5469,1622.5C 5468.67,1622.17 5468.33,1621.83 5468,1621.5C 5464.94,1628.18 5461.61,1635.18 5458,1642.5C 5262.39,2141.01 5068.05,2635.68 4875,3126.5C 4874.37,3128.71 4874.54,3130.88 4875.5,3133C 4877.18,3135.32 4879.01,3137.16 4881,3138.5C 4974.73,3174.09 5068.39,3210.76 5162,3248.5C 5162.38,3249.94 5163.21,3250.94 5164.5,3251.5C 5166.61,3252.65 5168.61,3253.98 5170.5,3255.5C 5173.5,3258.83 5176.5,3262.17 5179.5,3265.5C 5186.88,3275.07 5192.88,3285.57 5197.5,3297C 5196.65,3298.56 5197.32,3299.56 5199.5,3300C 5200.33,3303.59 5200.33,3306.93 5199.5,3310C 5200.95,3311.96 5201.29,3313.96 5200.5,3316C 5201.26,3317.51 5202.26,3318.85 5203.5,3320C 5202.9,3322.4 5202.9,3325.07 5203.5,3328C 5202.61,3330.07 5201.94,3332.24 5201.5,3334.5C 5202.14,3338.48 5202.14,3342.65 5201.5,3347C 5199.42,3353.38 5197.59,3359.88 5196,3366.5C 5189.68,3377.49 5184.01,3388.82 5179,3400.5C 5177.69,3399.85 5176.86,3400.52 5176.5,3402.5C 5173.91,3407.43 5170.24,3411.43 5165.5,3414.5C 5162.87,3415.47 5160.87,3417.14 5159.5,3419.5C 5158.5,3421.17 5157.17,3422.5 5155.5,3423.5C 5153.89,3423.94 5152.72,3424.94 5152,3426.5C 5151.67,3426.17 5151.33,3425.83 5151,3425.5C 5149.7,3426.08 5148.53,3426.75 5147.5,3427.5C 5143.94,3428.87 5140.27,3431.21 5136.5,3434.5C 5136.17,3433.17 5135.83,3433.17 5135.5,3434.5C 5134.06,3435.36 5132.73,3435.36 5131.5,3434.5C 5130.46,3436.99 5129.63,3436.99 5129,3434.5C 5126.9,3436.74 5124.56,3437.74 5122,3437.5C 5118.67,3438.83 5115.33,3440.17 5112,3441.5C 5109.03,3440.89 5105.53,3440.89 5101.5,3441.5C 5101.17,3440.17 5100.83,3440.17 5100.5,3441.5C 5098.92,3441.43 5097.25,3441.77 5095.5,3442.5C 5095.17,3441.17 5094.83,3441.17 5094.5,3442.5C 5094.17,3442.5 5093.83,3442.5 5093.5,3442.5C 5093.17,3441.17 5092.83,3441.17 5092.5,3442.5C 5089.21,3441.79 5085.88,3441.46 5082.5,3441.5C 5082.17,3440.17 5081.83,3440.17 5081.5,3441.5C 5079.15,3441.13 5076.48,3440.63 5073.5,3440C 5015.81,3418.25 4958.31,3395.75 4901,3372.5C 4897.83,3372.91 4895.33,3374.41 4893.5,3377C 4885.58,3395.65 4877.75,3414.82 4870,3434.5C 4867.39,3439.96 4865.89,3445.46 4865.5,3451C 4867.68,3451.44 4868.35,3452.44 4867.5,3454C 4897.36,3465.37 4926.52,3477.2 4955,3489.5C 4955.5,3490.5 4956,3491.5 4956.5,3492.5C 4959.49,3494.75 4962.32,3496.41 4965,3497.5C 4966.17,3499.33 4967.33,3501.17 4968.5,3503C 4967.35,3503.91 4967.51,3504.75 4969,3505.5C 4969.33,3505.17 4969.67,3504.83 4970,3504.5C 4972.21,3506.37 4974.04,3508.54 4975.5,3511C 4978.14,3517.26 4981.47,3523.59 4985.5,3530C 4985.72,3532.19 4985.38,3534.53 4984.5,3537C 4985.78,3540.39 4987.44,3543.55 4989.5,3546.5C 4989.41,3548.7 4989.41,3550.87 4989.5,3553C 4988.83,3555 4988.17,3557 4987.5,3559C 4987.72,3562.12 4988.38,3565.45 4989.5,3569C 4987.48,3573.44 4986.64,3577.94 4987,3582.5C 4983.87,3589.11 4981.37,3595.94 4979.5,3603C 4978.18,3605.32 4976.68,3607.49 4975,3609.5C 4974.2,3615.77 4971.04,3620.1 4965.5,3622.5C 4964.1,3625.85 4962.6,3629.19 4961,3632.5C 4960.67,3632.17 4960.33,3631.83 4960,3631.5C 4956.59,3636.12 4952.09,3639.12 4946.5,3640.5C 4943.45,3644.72 4939.62,3648.05 4935,3650.5C 4933.85,3649.32 4932.69,3649.32 4931.5,3650.5C 4931.17,3649.17 4930.83,3649.17 4930.5,3650.5C 4929.83,3651.17 4929.17,3651.83 4928.5,3652.5C 4927.83,3651.17 4927.17,3651.17 4926.5,3652.5C 4925.11,3653.61 4923.61,3654.61 4922,3655.5C 4919.67,3655.17 4917.33,3654.83 4915,3654.5C 4912.8,3655.59 4910.64,3656.59 4908.5,3657.5C 4904.41,3656.37 4900.08,3656.37 4895.5,3657.5C 4895.17,3656.17 4894.83,3656.17 4894.5,3657.5C 4892.51,3656.24 4890.68,3656.57 4889,3658.5C 4861.56,3649.12 4833.73,3638.62 4805.5,3627C 4802.95,3626.24 4800.45,3625.41 4798,3624.5C 4797.72,3625.42 4797.22,3626.08 4796.5,3626.5C 4796.17,3625.17 4795.83,3625.17 4795.5,3626.5C 4789.82,3638.34 4784.99,3650.68 4781,3663.5C 4776.61,3672.32 4772.77,3681.49 4769.5,3691C 4769.5,3692.33 4769.5,3693.67 4769.5,3695C 4770.64,3696.97 4771.97,3698.81 4773.5,3700.5C 4834.3,3723.87 4894.63,3748.21 4954.5,3773.5C 4957.01,3776.51 4959.68,3779.34 4962.5,3782C 4963.83,3782.67 4965.17,3783.33 4966.5,3784C 4968.37,3788.02 4971.04,3791.19 4974.5,3793.5C 4977.66,3795.65 4978.99,3798.48 4978.5,3802C 4980.35,3803.52 4981.85,3805.35 4983,3807.5C 4983.33,3807.17 4983.67,3806.83 4984,3806.5C 4985.45,3809.07 4986.62,3811.74 4987.5,3814.5C 4986.17,3814.83 4986.17,3815.17 4987.5,3815.5C 4989.74,3817.11 4991.41,3819.27 4992.5,3822C 4991.96,3826.66 4993.29,3830.99 4996.5,3835C 4995.61,3839.42 4995.28,3843.75 4995.5,3848C 4996.83,3850 4998.17,3852 4999.5,3854C 4998.76,3856.24 4998.76,3858.24 4999.5,3860C 4992.17,3883.33 4983.17,3906.83 4972.5,3930.5C 4971.12,3931.57 4969.95,3932.91 4969,3934.5C 4968.33,3933.17 4967.67,3933.17 4967,3934.5C 4964.27,3939.68 4961.11,3943.84 4957.5,3947C 4957.83,3947.33 4958.17,3947.67 4958.5,3948C 4956.94,3948.21 4955.61,3948.71 4954.5,3949.5C 4953.5,3950.17 4952.5,3950.83 4951.5,3951.5C 4951.17,3950.17 4950.83,3950.17 4950.5,3951.5C 4949.32,3951.28 4948.32,3951.61 4947.5,3952.5C 4945.43,3955.48 4942.93,3958.14 4940,3960.5C 4938.09,3959.92 4936.43,3959.92 4935,3960.5C 4934.67,3961.17 4934.33,3961.83 4934,3962.5C 4933.28,3961.55 4932.45,3961.38 4931.5,3962C 4932.7,3962.65 4932.7,3963.15 4931.5,3963.5C 4928.4,3963.31 4925.24,3963.31 4922,3963.5C 4921.72,3964.42 4921.22,3965.08 4920.5,3965.5C 4920.17,3964.17 4919.83,3964.17 4919.5,3965.5C 4918.11,3966.61 4916.61,3967.61 4915,3968.5C 4912.67,3968.17 4910.33,3967.83 4908,3967.5C 4907.65,3969.81 4906.65,3970.14 4905,3968.5C 4902.56,3969.65 4900.22,3970.98 4898,3972.5C 4897.37,3970.01 4896.54,3970.01 4895.5,3972.5C 4893.62,3971.91 4891.78,3971.24 4890,3970.5C 4883.54,3970.92 4876.88,3970.92 4870,3970.5C 4788.45,3940.02 4707.79,3908.36 4628,3875.5C 4627.67,3875.83 4627.33,3876.17 4627,3876.5C 4616,3871.67 4604.84,3867.34 4593.5,3863.5C 4593.17,3862.17 4592.83,3862.17 4592.5,3863.5C 4590.56,3864.59 4588.73,3865.92 4587,3867.5C 4580.87,3883.93 4574.04,3900.1 4566.5,3916C 4563.37,3920.42 4560.37,3924.92 4557.5,3929.5C 4556.4,3930.18 4555.4,3930.84 4554.5,3931.5C 4549.37,3935.74 4545.7,3941.08 4543.5,3947.5C 4542.51,3949.79 4540.84,3951.46 4538.5,3952.5C 4538.17,3951.17 4537.83,3951.17 4537.5,3952.5C 4534.78,3955.21 4532.45,3958.21 4530.5,3961.5C 4530.17,3960.17 4529.83,3960.17 4529.5,3961.5C 4528.17,3961.83 4528.17,3962.17 4529.5,3962.5C 4526.02,3963.18 4523.52,3965.18 4522,3968.5C 4521.67,3968.17 4521.33,3967.83 4521,3967.5C 4520.39,3969.07 4519.56,3970.4 4518.5,3971.5C 4518.17,3970.17 4517.83,3970.17 4517.5,3971.5C 4516.17,3971.83 4516.17,3972.17 4517.5,3972.5C 4516.81,3973.77 4515.98,3973.77 4515,3972.5C 4513.81,3974.23 4512.64,3975.9 4511.5,3977.5C 4511.17,3976.17 4510.83,3976.17 4510.5,3977.5C 4506.87,3980.99 4502.54,3983.49 4497.5,3985C 4496.5,3986.67 4495.17,3988 4493.5,3989C 4489.08,3990.58 4484.74,3992.41 4480.5,3994.5C 4479.91,3994.29 4479.41,3993.96 4479,3993.5C 4475.84,3996.92 4472.18,3998.59 4468,3998.5C 4467.33,4001.17 4466.67,4001.17 4466,3998.5C 4461.59,3999.94 4457.09,4001.94 4452.5,4004.5C 4451.09,4003.33 4449.93,4003.67 4449,4005.5C 4447.36,4004.88 4445.53,4004.88 4443.5,4005.5C 4443.44,4004.96 4443.11,4004.62 4442.5,4004.5C 4440.06,4005.93 4437.56,4007.26 4435,4008.5C 4429.62,4007.62 4424.79,4007.62 4420.5,4008.5C 4420.17,4007.17 4419.83,4007.17 4419.5,4008.5C 4417.48,4008.79 4415.48,4009.12 4413.5,4009.5C 4413.17,4008.17 4412.83,4008.17 4412.5,4009.5C 4407.8,4010.2 4403.3,4009.2 4399,4006.5C 4397.67,4006.5 4396.33,4006.5 4395,4006.5C 4394.25,4007.13 4393.42,4007.63 4392.5,4008C 4392.83,4008.33 4393.17,4008.67 4393.5,4009C 4392.55,4009.48 4391.55,4009.65 4390.5,4009.5C 4390.17,4008.17 4389.83,4008.17 4389.5,4009.5C 4386.97,4010.12 4384.3,4009.95 4381.5,4009C 4352.3,3999.2 4323.97,3988.2 4296.5,3976C 4292.65,3970.87 4288.82,3966.37 4285,3962.5C 4284.67,3962.83 4284.33,3963.17 4284,3963.5C 4282.78,3960.65 4280.61,3958.81 4277.5,3958C 4277.83,3957.67 4278.17,3957.33 4278.5,3957C 4272.35,3954.7 4267.68,3950.2 4264.5,3943.5C 4264.71,3942.91 4265.04,3942.41 4265.5,3942C 4263.5,3940.67 4261.5,3939.33 4259.5,3938C 4259.83,3937.67 4260.17,3937.33 4260.5,3937C 4258.04,3936.28 4257.04,3934.94 4257.5,3933C 4255.32,3932.56 4254.65,3931.56 4255.5,3930C 4253.21,3928.71 4251.21,3927.04 4249.5,3925C 4249.83,3924.67 4250.17,3924.33 4250.5,3924C 4248.81,3922.29 4247.47,3920.29 4246.5,3918C 4246.83,3917.67 4247.17,3917.33 4247.5,3917C 4246.64,3914.93 4245.3,3913.26 4243.5,3912C 4243.83,3911.67 4244.17,3911.33 4244.5,3911C 4239.12,3906.09 4235.96,3899.92 4235,3892.5C 4233.3,3890.3 4231.8,3887.97 4230.5,3885.5C 4229.3,3881.9 4229.3,3878.24 4230.5,3874.5C 4228.46,3871.38 4226.79,3868.04 4225.5,3864.5C 4225.63,3861.25 4225.97,3858.09 4226.5,3855C 4225.83,3854.33 4225.17,3853.67 4224.5,3853C 4224.5,3851.33 4224.5,3849.67 4224.5,3848C 4223.57,3847.61 4222.91,3846.95 4222.5,3846C 4222.52,3843.68 4222.52,3841.35 4222.5,3839C 4223.57,3838.26 4224.24,3837.26 4224.5,3836C 4223.73,3833.86 4223.07,3831.7 4222.5,3829.5C 4223.42,3824.69 4224.42,3819.52 4225.5,3814C 4225.17,3811 4224.83,3808 4224.5,3805C 4226.64,3802.93 4227.31,3800.6 4226.5,3798C 4227.17,3797.33 4227.83,3796.67 4228.5,3796C 4227.7,3793.68 4227.36,3791.18 4227.5,3788.5C 4228.76,3784.94 4229.59,3781.27 4230,3777.5C 4531.24,3012.78 4830.4,2251.61 5127.5,1494C 5126.78,1490.43 5125.95,1486.59 5125,1482.5C 5123.25,1480.75 5121.08,1478.58 5118.5,1476C 5118.83,1475.67 5119.17,1475.33 5119.5,1475C 5116.05,1473.27 5114.21,1470.44 5114,1466.5C 5112.86,1464.39 5111.36,1462.56 5109.5,1461C 5109.83,1460.67 5110.17,1460.33 5110.5,1460C 5109.31,1458.65 5107.98,1457.48 5106.5,1456.5C 5106.75,1455.23 5106.75,1454.06 5106.5,1453C 5103.64,1448.88 5100.81,1445.38 5098,1442.5C 5094.84,1435.48 5091.34,1429.15 5087.5,1423.5C 5088.28,1421.67 5087.62,1420.17 5085.5,1419C 5085.83,1418.67 5086.17,1418.33 5086.5,1418C 5085.17,1417 5083.83,1416 5082.5,1415C 5082.83,1414.67 5083.17,1414.33 5083.5,1414C 5078.22,1407.9 5073.72,1400.74 5070,1392.5C 5066.64,1389.96 5065.14,1386.79 5065.5,1383C 5063.45,1382.07 5061.95,1380.57 5061,1378.5C 5054.01,1366.21 5047.01,1353.87 5040,1341.5C 5035.41,1336.62 5032.58,1331.12 5031.5,1325C 5029.39,1323.81 5027.73,1322.14 5026.5,1320C 5026.11,1318.47 5026.11,1316.81 5026.5,1315C 5019.98,1308.79 5015.48,1301.29 5013,1292.5C 5008.49,1287.47 5004.99,1281.8 5002.5,1275.5C 5002.71,1274.91 5003.04,1274.41 5003.5,1274C 4999.74,1269.81 4996.74,1265.14 4994.5,1260C 4994.83,1259.67 4995.17,1259.33 4995.5,1259C 4989.89,1251.55 4985.56,1243.89 4982.5,1236C 4982.83,1235.67 4983.17,1235.33 4983.5,1235C 4979.66,1232.98 4978,1229.98 4978.5,1226C 4973.12,1220.56 4969.62,1214.06 4968,1206.5C 4966.16,1203.63 4964.33,1200.8 4962.5,1198C 4963.63,1196.98 4963.3,1196.32 4961.5,1196C 4962.26,1194.64 4961.76,1193.47 4960,1192.5C 4958.57,1190.29 4958.07,1188.13 4958.5,1186C 4953.46,1179.95 4950.46,1173.29 4949.5,1166C 4948.53,1164.8 4947.53,1164.3 4946.5,1164.5C 4946.71,1163.91 4947.04,1163.41 4947.5,1163C 4946.33,1162.5 4945.5,1161.67 4945,1160.5C 4943.01,1152.83 4939.51,1145.5 4934.5,1138.5C 4935.19,1136.94 4935.02,1135.27 4934,1133.5C 4932.33,1134.34 4932.17,1133.84 4933.5,1132C 4931.1,1127.2 4928.43,1122.54 4925.5,1118C 4925.83,1117.67 4926.17,1117.33 4926.5,1117C 4924.23,1114.19 4923.23,1111.19 4923.5,1108C 4920.23,1106.12 4918.89,1103.45 4919.5,1100C 4917.06,1097.63 4915.22,1094.8 4914,1091.5C 4913.32,1090.22 4913.48,1089.05 4914.5,1088C 4911.9,1084.13 4909.57,1080.13 4907.5,1076C 4907.11,1074.47 4907.11,1072.81 4907.5,1071C 4906.69,1070.69 4906.03,1070.19 4905.5,1069.5C 4902.74,1061.88 4899.41,1054.55 4895.5,1047.5C 4894.28,1040.56 4891.61,1033.89 4887.5,1027.5C 4887.71,1026.91 4888.04,1026.41 4888.5,1026C 4886.86,1024.2 4885.52,1022.2 4884.5,1020C 4885.02,1017.71 4884.36,1015.54 4882.5,1013.5C 4882.71,1012.91 4883.04,1012.41 4883.5,1012C 4880.53,1008.45 4878.69,1004.28 4878,999.5C 4874.14,993.407 4871.81,986.74 4871,979.5C 4870.07,977.064 4868.9,974.731 4867.5,972.5C 4867.71,971.914 4868.04,971.414 4868.5,971C 4866.08,969.856 4865.42,968.19 4866.5,966C 4859.33,948.635 4852.66,931.135 4846.5,913.5C 4846.83,912.833 4847.17,912.167 4847.5,911.5C 4846.47,910.3 4845.64,908.966 4845,907.5C 4842.86,898.084 4840.02,888.917 4836.5,880C 4836.33,877.74 4836.33,875.407 4836.5,873C 4835.69,870.912 4834.69,868.912 4833.5,867C 4833.83,866.667 4834.17,866.333 4834.5,866C 4831.81,864.584 4831.14,862.584 4832.5,860C 4830.75,852.825 4828.42,845.825 4825.5,839C 4825.5,837.601 4825.83,836.101 4826.5,834.5C 4823.28,826.419 4820.95,818.086 4819.5,809.5C 4820,808.284 4820.33,807.117 4820.5,806C 4819.31,803.943 4818.31,801.943 4817.5,800C 4817.25,798.089 4817.25,796.089 4817.5,794C 4816.17,789.333 4814.83,784.667 4813.5,780C 4812.9,775.837 4812.9,771.837 4813.5,768C 4812.5,764.843 4811.17,761.509 4809.5,758C 4809.48,752.477 4809.82,747.477 4810.5,743C 4809.69,740.912 4808.69,738.912 4807.5,737C 4807.5,731.667 4807.5,726.333 4807.5,721C 4806.35,718.788 4805.35,716.621 4804.5,714.5C 4805.31,712.22 4805.31,709.72 4804.5,707C 4805.17,706.333 4805.83,705.667 4806.5,705C 4805.17,704 4805.17,703 4806.5,702C 4804.88,701.147 4804.54,700.147 4805.5,699C 4804.74,697.559 4804.07,696.059 4803.5,694.5C 4804.64,692.259 4804.64,690.092 4803.5,688C 4804.17,687 4804.83,686 4805.5,685C 4804.07,681.63 4803.07,678.296 4802.5,675C 4802.64,674.228 4802.98,673.561 4803.5,673C 4802.2,672.196 4801.53,671.029 4801.5,669.5C 4802.31,663.392 4802.98,657.559 4803.5,652C 4803.07,648.58 4802.07,645.08 4800.5,641.5C 4800.69,636.475 4801.36,631.308 4802.5,626C 4801.98,622.262 4801.98,618.595 4802.5,615C 4800.55,612.463 4799.88,609.796 4800.5,607C 4801.94,601.604 4802.94,596.27 4803.5,591C 4803.36,590.228 4803.02,589.561 4802.5,589C 4803.31,588.692 4803.97,588.192 4804.5,587.5C 4804.14,580.569 4803.47,573.736 4802.5,567C 4804.33,566.072 4804.67,564.906 4803.5,563.5C 4806.09,557.284 4807.76,551.117 4808.5,545C 4806.57,540.413 4805.9,536.08 4806.5,532C 4807.96,529.095 4809.29,526.095 4810.5,523C 4810.04,522.586 4809.71,522.086 4809.5,521.5C 4811.9,514.658 4814.23,507.825 4816.5,501C 4816.5,497.333 4816.5,493.667 4816.5,490C 4818.38,480.992 4820.88,471.825 4824,462.5C 4839.11,419.913 4856.27,377.913 4875.5,336.5C 4877.5,333.536 4880,330.869 4883,328.5C 4888.6,317.639 4893.93,306.639 4899,295.5C 4899.33,295.833 4899.67,296.167 4900,296.5C 4900.66,295.016 4901.5,293.683 4902.5,292.5C 4903.43,290.424 4905.09,289.257 4907.5,289C 4907.17,288.667 4906.83,288.333 4906.5,288C 4908.09,286.954 4909.59,285.787 4911,284.5C 4914.07,276.853 4918.24,270.686 4923.5,266C 4923.17,265.667 4922.83,265.333 4922.5,265C 4924.73,264.439 4926.73,263.439 4928.5,262C 4928.17,261.667 4927.83,261.333 4927.5,261C 4930.74,258.327 4933.07,255.494 4934.5,252.5C 4935.5,250.833 4936.83,249.5 4938.5,248.5C 4941.52,245.632 4944.18,242.465 4946.5,239C 4946.17,238.667 4945.83,238.333 4945.5,238C 4948.27,235.642 4950.94,233.142 4953.5,230.5C 4954.43,229.359 4955.26,229.359 4956,230.5C 4958.38,227.959 4960.55,225.293 4962.5,222.5C 4966.89,219.578 4969.72,215.912 4971,211.5C 4971.33,211.833 4971.67,212.167 4972,212.5C 4980.39,204.801 4989.06,196.801 4998,188.5C 4998.33,188.833 4998.67,189.167 4999,189.5C 5001.37,186.794 5004.04,184.461 5007,182.5C 5007.33,182.833 5007.67,183.167 5008,183.5C 5010.15,182.023 5011.48,180.023 5012,177.5C 5012.33,177.833 5012.67,178.167 5013,178.5C 5014.62,176.759 5016.12,174.925 5017.5,173C 5019.09,173.617 5020.43,173.284 5021.5,172C 5021.17,171.667 5020.83,171.333 5020.5,171C 5023.69,170.742 5025.69,169.075 5026.5,166C 5031.27,163.451 5035.94,160.618 5040.5,157.5C 5041.92,158.777 5042.92,158.443 5043.5,156.5C 5045.96,155.445 5047.62,153.612 5048.5,151C 5049.83,151 5051.17,151 5052.5,151C 5052.17,150.667 5051.83,150.333 5051.5,150C 5055.78,149.474 5059.11,147.474 5061.5,144C 5063.39,143.027 5065.39,142.36 5067.5,142C 5066.66,140.334 5067.16,140.167 5069,141.5C 5072.9,138.56 5076.9,135.893 5081,133.5C 5081.33,133.833 5081.67,134.167 5082,134.5C 5084.24,131.211 5087.24,128.877 5091,127.5C 5093.86,128.249 5096.19,127.249 5098,124.5C 5099.47,124.097 5100.81,123.43 5102,122.5C 5102.33,122.833 5102.67,123.167 5103,123.5C 5103.58,120.876 5104.91,120.209 5107,121.5C 5108.41,120.213 5109.91,119.046 5111.5,118C 5119.34,114.171 5127,111.504 5134.5,110C 5133.66,108.334 5134.16,108.167 5136,109.5C 5137.07,108.809 5138.23,108.309 5139.5,108C 5138.83,107.667 5138.17,107.333 5137.5,107C 5141.31,107.06 5144.98,106.227 5148.5,104.5C 5153.97,102.699 5159.47,100.366 5165,97.5C 5166,97.8333 5167,98.1667 5168,98.5C 5170.47,97.5989 5172.97,96.5989 5175.5,95.5C 5177.74,96.3826 5179.41,95.5493 5180.5,93C 5181.78,92.3162 5182.95,92.4829 5184,93.5C 5185.11,92.695 5186.28,92.0283 5187.5,91.5C 5187.56,92.0431 5187.89,92.3764 5188.5,92.5C 5189.81,91.6872 5190.98,90.6872 5192,89.5C 5194.04,90.772 5195.88,90.4386 5197.5,88.5C 5201.21,89.5175 5204.88,88.5175 5208.5,85.5C 5209.91,86.6682 5211.07,86.3348 5212,84.5C 5213.15,85.6843 5214.31,85.6843 5215.5,84.5C 5219.32,84.6453 5223.16,84.6453 5227,84.5C 5227.58,81.8758 5228.91,81.2092 5231,82.5C 5232.31,80.1088 5233.31,80.1088 5234,82.5C 5235.77,80.3599 5237.77,80.0265 5240,81.5C 5241.37,81.1557 5242.53,80.4891 5243.5,79.5C 5248.95,80.9013 5253.78,79.9013 5258,76.5C 5264.48,76.5631 5270.98,76.8964 5277.5,77.5C 5279.06,76.9264 5280.56,76.2598 5282,75.5C 5283.15,76.4581 5284.15,76.1247 5285,74.5C 5288.43,75.2566 5291.76,75.59 5295,75.5C 5295.67,72.8333 5296.33,72.8333 5297,75.5C 5302.3,74.2217 5307.97,74.2217 5314,75.5C 5316.21,74.3498 5318.38,73.3498 5320.5,72.5C 5321.72,73.7111 5322.89,73.7111 5324,72.5C 5326.03,73.0475 5328.2,74.0475 5330.5,75.5C 5332.6,75.5207 5334.77,75.1874 5337,74.5C 5338.33,75.1667 5339.67,75.8333 5341,76.5C 5341.67,73.8333 5342.33,73.8333 5343,76.5C 5343.67,75.1667 5344.33,75.1667 5345,76.5C 5345.33,75.8333 5345.67,75.1667 5346,74.5C 5349.33,75.8333 5352.67,75.8333 5356,74.5C 5362.83,76.7086 5369.5,78.3753 5376,79.5C 5380.22,79.7591 5384.89,79.0924 5390,77.5C 5401.2,81.4259 5412.53,85.0926 5424,88.5C 5424.33,88.1667 5424.67,87.8333 5425,87.5C 5428,88.1667 5431,88.8333 5434,89.5C 5434.67,86.8333 5435.33,86.8333 5436,89.5C 5437.27,89.3842 5438.6,89.0509 5440,88.5C 5453.44,91.8727 5466.77,96.5394 5480,102.5C 5480.33,102.167 5480.67,101.833 5481,101.5C 5501.89,110.252 5522.72,119.419 5543.5,129C 5543.17,129.333 5542.83,129.667 5542.5,130C 5553.95,139.656 5567.12,147.49 5582,153.5C 5583.78,155.293 5585.61,156.959 5587.5,158.5 Z M 5899.5,335.5 C 5898.83,336.833 5898.17,336.833 5897.5,335.5C 5898.17,334.167 5898.83,334.167 5899.5,335.5 Z M 5445.5,392.5 C 5447.74,393.93 5449.58,395.93 5451,398.5C 5451.33,398.167 5451.67,397.833 5452,397.5C 5452.94,400.257 5454.44,402.59 5456.5,404.5C 5459.78,406.139 5462.78,408.139 5465.5,410.5C 5466.48,412.291 5467.82,413.791 5469.5,415C 5469.17,415.333 5468.83,415.667 5468.5,416C 5475.12,420.224 5479.62,425.724 5482,432.5C 5486.81,436.04 5490.98,439.54 5494.5,443C 5494.17,443.333 5493.83,443.667 5493.5,444C 5495.05,445.44 5495.88,447.273 5496,449.5C 5496.5,451.544 5497.66,452.878 5499.5,453.5C 5501.4,455.628 5503.07,457.961 5504.5,460.5C 5504.33,461.492 5504.66,462.158 5505.5,462.5C 5507.36,465.392 5509.19,468.392 5511,471.5C 5511.33,471.167 5511.67,470.833 5512,470.5C 5514.49,474.499 5515.99,478.499 5516.5,482.5C 5519.47,489.027 5522.81,494.86 5526.5,500C 5525.88,502.498 5526.55,504.832 5528.5,507C 5528.17,507.333 5527.83,507.667 5527.5,508C 5529.53,511.269 5531.53,513.936 5533.5,516C 5533.25,518.089 5533.25,520.089 5533.5,522C 5535.54,525.661 5537.21,529.494 5538.5,533.5C 5540.78,537.903 5543.11,542.736 5545.5,548C 5544.48,549.049 5544.32,550.216 5545,551.5C 5546.98,553.998 5548.48,556.665 5549.5,559.5C 5552.43,566.968 5555.43,573.968 5558.5,580.5C 5558.29,581.086 5557.96,581.586 5557.5,582C 5559.31,585.432 5560.64,588.932 5561.5,592.5C 5562.88,594.663 5564.04,596.996 5565,599.5C 5565.2,603.695 5566.03,607.362 5567.5,610.5C 5568.06,613.787 5569.72,616.287 5572.5,618C 5572.17,618.333 5571.83,618.667 5571.5,619C 5572.83,621.333 5574.17,623.667 5575.5,626C 5575.04,626.414 5574.71,626.914 5574.5,627.5C 5575.79,630.58 5577.46,633.414 5579.5,636C 5579.17,636.333 5578.83,636.667 5578.5,637C 5581.45,645.908 5584.62,653.742 5588,660.5C 5587.95,663.656 5589.11,666.156 5591.5,668C 5591.17,669 5590.83,670 5590.5,671C 5592.23,675.124 5594.23,679.124 5596.5,683C 5596.17,683.333 5595.83,683.667 5595.5,684C 5598.35,690.527 5601.02,697.027 5603.5,703.5C 5605.32,709.867 5607.65,716.2 5610.5,722.5C 5610.33,723.492 5610.66,724.158 5611.5,724.5C 5614.33,731.284 5619.17,734.951 5626,735.5C 5636.56,731.361 5646.06,726.694 5654.5,721.5C 5655.79,721.737 5656.79,721.404 5657.5,720.5C 5659.04,719.233 5660.71,718.233 5662.5,717.5C 5666.06,716.136 5669.23,714.136 5672,711.5C 5673.84,712.833 5674.34,712.666 5673.5,711C 5674.83,710.667 5676.17,710.333 5677.5,710C 5678.82,708.024 5680.49,706.524 5682.5,705.5C 5683.79,705.737 5684.79,705.404 5685.5,704.5C 5686.99,702.949 5689.32,701.949 5692.5,701.5C 5697.44,698.533 5702.44,695.866 5707.5,693.5C 5723.94,684.418 5739.94,676.085 5755.5,668.5C 5770.67,660.644 5786.51,652.311 5803,643.5C 5803.33,643.833 5803.67,644.167 5804,644.5C 5807.46,643.72 5810.46,642.053 5813,639.5C 5818.89,637.391 5824.06,634.891 5828.5,632C 5834.8,630.973 5840.13,628.807 5844.5,625.5C 5846.78,624.787 5849.11,624.287 5851.5,624C 5851.17,623.667 5850.83,623.333 5850.5,623C 5852.06,622.79 5853.39,622.29 5854.5,621.5C 5855.87,621.208 5857.21,620.875 5858.5,620.5C 5859.4,619.402 5860.23,619.402 5861,620.5C 5863.79,617.876 5866.95,615.876 5870.5,614.5C 5872.26,614.306 5874.1,614.306 5876,614.5C 5876.32,612.699 5876.98,612.366 5878,613.5C 5879.33,612.506 5880.66,611.506 5882,610.5C 5883.42,611.205 5884.76,611.539 5886,611.5C 5889.47,610.957 5892.81,609.957 5896,608.5C 5898.12,609.739 5899.95,609.405 5901.5,607.5C 5906.09,607.023 5910.26,605.689 5914,603.5C 5914.33,603.833 5914.67,604.167 5915,604.5C 5920.73,603.493 5925.9,602.827 5930.5,602.5C 5931.4,601.402 5932.23,601.402 5933,602.5C 5933.33,601.833 5933.67,601.167 5934,600.5C 5935.57,599.939 5936.9,600.606 5938,602.5C 5939.44,601.74 5940.94,601.074 5942.5,600.5C 5944.93,601.64 5947.43,601.64 5950,600.5C 5954.19,603.355 5958.19,603.021 5962,599.5C 5963.79,599.991 5965.79,599.991 5968,599.5C 5978.89,600.652 5990.23,602.318 6002,604.5C 6002.33,604.167 6002.67,603.833 6003,603.5C 6020.72,610.187 6038.56,616.687 6056.5,623C 6065.34,627.85 6074.18,632.683 6083,637.5C 6086.37,641.043 6089.87,644.376 6093.5,647.5C 6095.88,648.531 6098.22,649.864 6100.5,651.5C 6101.04,653.261 6102.04,654.594 6103.5,655.5C 6104.97,656.675 6106.64,657.675 6108.5,658.5C 6109.79,660.103 6110.79,661.769 6111.5,663.5C 6114.41,665.219 6117.24,667.219 6120,669.5C 6122.93,674.382 6126.1,679.048 6129.5,683.5C 6131.98,686.604 6134.98,689.104 6138.5,691C 6139.95,698.736 6143.95,704.403 6150.5,708C 6149.23,708.977 6149.23,709.811 6150.5,710.5C 6149.93,713.026 6150.6,715.359 6152.5,717.5C 6153.86,719.191 6155.2,720.858 6156.5,722.5C 6157.46,723.659 6158.46,724.826 6159.5,726C 6160.83,731.336 6162.67,736.502 6165,741.5C 6165.83,743 6167,744.167 6168.5,745C 6167.98,745.561 6167.64,746.228 6167.5,747C 6168.53,750.808 6169.87,754.475 6171.5,758C 6171.39,761.678 6172.56,765.178 6175,768.5C 6174.59,774.879 6175.76,781.045 6178.5,787C 6177.37,788.016 6177.7,788.683 6179.5,789C 6178.15,790.957 6178.48,792.957 6180.5,795C 6178.68,797.865 6178.02,801.198 6178.5,805C 6179.17,806.333 6179.83,807.667 6180.5,809C 6179.95,810.398 6179.62,811.732 6179.5,813C 6180.17,813.667 6180.83,814.333 6181.5,815C 6180.6,819.884 6180.6,824.884 6181.5,830C 6180.74,831.512 6179.74,832.846 6178.5,834C 6179.11,836.466 6178.78,838.966 6177.5,841.5C 6177.38,846.293 6178.05,851.293 6179.5,856.5C 6178.63,860.198 6177.63,863.865 6176.5,867.5C 6176.71,868.086 6177.04,868.586 6177.5,869C 6176.17,871.667 6174.83,874.333 6173.5,877C 6173.83,877.333 6174.17,877.667 6174.5,878C 6172.99,885.374 6171.32,892.707 6169.5,900C 6169.83,900.333 6170.17,900.667 6170.5,901C 6165.47,914.694 6159.97,928.527 6154,942.5C 6149.49,951.675 6144.16,960.342 6138,968.5C 6134.52,975.941 6130.85,983.274 6127,990.5C 6126.67,990.167 6126.33,989.833 6126,989.5C 6125.07,992.505 6123.07,995.172 6120,997.5C 6119.67,997.167 6119.33,996.833 6119,996.5C 6114.82,1003.37 6110.82,1010.37 6107,1017.5C 6105.18,1020.15 6102.68,1021.82 6099.5,1022.5C 6095.35,1028.8 6091.18,1035.13 6087,1041.5C 6083.33,1042.5 6081,1044.83 6080,1048.5C 6079.67,1048.17 6079.33,1047.83 6079,1047.5C 6077.97,1050.69 6075.81,1052.03 6072.5,1051.5C 6072.51,1053.31 6072.01,1054.98 6071,1056.5C 6070.67,1056.17 6070.33,1055.83 6070,1055.5C 6069.52,1057.13 6068.69,1058.47 6067.5,1059.5C 6066.42,1059.54 6065.42,1059.87 6064.5,1060.5C 6063.64,1062.2 6062.3,1063.36 6060.5,1064C 6060.83,1064.33 6061.17,1064.67 6061.5,1065C 6059.82,1066.29 6058.15,1067.45 6056.5,1068.5C 6055.02,1070.41 6053.02,1071.58 6050.5,1072C 6050.96,1072.41 6051.29,1072.91 6051.5,1073.5C 6050.1,1074.52 6048.77,1075.52 6047.5,1076.5C 6046.26,1078.61 6044.76,1080.61 6043,1082.5C 6042.67,1082.17 6042.33,1081.83 6042,1081.5C 6038.38,1084.16 6034.88,1086.99 6031.5,1090C 6031.83,1090.33 6032.17,1090.67 6032.5,1091C 6028.54,1093.79 6024.54,1096.29 6020.5,1098.5C 6019.21,1098.26 6018.21,1098.6 6017.5,1099.5C 6015.21,1102.86 6012.54,1105.7 6009.5,1108C 6007.62,1108.2 6005.95,1108.7 6004.5,1109.5C 6000.81,1113.13 5996.48,1116.79 5991.5,1120.5C 5987.07,1123.08 5982.73,1125.92 5978.5,1129C 5977.17,1129.33 5975.83,1129.67 5974.5,1130C 5972.98,1133.06 5970.98,1134.89 5968.5,1135.5C 5967,1137.36 5965.33,1138.03 5963.5,1137.5C 5959.62,1138.55 5956.78,1140.88 5955,1144.5C 5954.02,1143.23 5953.19,1143.23 5952.5,1144.5C 5950.14,1146.24 5947.8,1148.08 5945.5,1150C 5941.06,1152.77 5935.73,1155.1 5929.5,1157C 5929.83,1157.33 5930.17,1157.67 5930.5,1158C 5926.76,1158.64 5923.59,1160.81 5921,1164.5C 5919.16,1163.17 5918.66,1163.33 5919.5,1165C 5909.81,1169.07 5900.81,1174.24 5892.5,1180.5C 5890.45,1181.77 5888.45,1182.1 5886.5,1181.5C 5885.3,1181.85 5885.3,1182.35 5886.5,1183C 5884.29,1184.04 5881.95,1184.71 5879.5,1185C 5880.17,1185.33 5880.83,1185.67 5881.5,1186C 5872.88,1189.14 5865.21,1193.14 5858.5,1198C 5855.15,1199.43 5852.15,1200.59 5849.5,1201.5C 5847.96,1202.77 5846.29,1203.77 5844.5,1204.5C 5840.27,1206.64 5835.93,1208.64 5831.5,1210.5C 5830.51,1210.33 5829.84,1210.66 5829.5,1211.5C 5828.17,1211.5 5827.5,1212.17 5827.5,1213.5C 5820.83,1215.64 5814.83,1218.3 5809.5,1221.5C 5808.78,1221.92 5808.28,1222.58 5808,1223.5C 5807.67,1223.17 5807.33,1222.83 5807,1222.5C 5805.43,1224.56 5803.6,1225.23 5801.5,1224.5C 5800.3,1224.85 5800.3,1225.35 5801.5,1226C 5799.98,1225.67 5798.65,1225.84 5797.5,1226.5C 5796.76,1227.8 5795.26,1229.13 5793,1230.5C 5791.71,1229.21 5790.54,1229.21 5789.5,1230.5C 5788.51,1230.33 5787.84,1230.66 5787.5,1231.5C 5786.78,1232.55 5785.78,1233.22 5784.5,1233.5C 5784.44,1232.96 5784.11,1232.62 5783.5,1232.5C 5782.09,1233.62 5780.59,1234.62 5779,1235.5C 5778.67,1235.17 5778.33,1234.83 5778,1234.5C 5774.75,1236.08 5771.75,1238.08 5769,1240.5C 5768.59,1240.04 5768.09,1239.71 5767.5,1239.5C 5760.27,1243.49 5752.94,1246.16 5745.5,1247.5C 5743.77,1248.12 5742.27,1249.12 5741,1250.5C 5739.16,1249.17 5738.66,1249.33 5739.5,1251C 5735.1,1252.37 5730.77,1253.54 5726.5,1254.5C 5725.51,1254.33 5724.84,1254.66 5724.5,1255.5C 5722.15,1256.66 5719.81,1257.66 5717.5,1258.5C 5715.37,1259.58 5713.04,1260.24 5710.5,1260.5C 5709.51,1260.33 5708.84,1260.66 5708.5,1261.5C 5707.21,1261.26 5706.21,1261.6 5705.5,1262.5C 5704.51,1262.33 5703.84,1262.66 5703.5,1263.5C 5702.51,1263.33 5701.84,1263.66 5701.5,1264.5C 5699.22,1265.21 5697.05,1266.21 5695,1267.5C 5694.67,1267.17 5694.33,1266.83 5694,1266.5C 5691.46,1268.43 5688.8,1270.1 5686,1271.5C 5685.67,1270.83 5685.33,1270.17 5685,1269.5C 5681.67,1272 5678,1274 5674,1275.5C 5673.44,1274.98 5672.77,1274.64 5672,1274.5C 5669.5,1276 5667,1277.33 5664.5,1278.5C 5658.59,1279.25 5652.92,1281.25 5647.5,1284.5C 5646.6,1285.6 5645.77,1285.6 5645,1284.5C 5644.65,1286.81 5643.65,1287.14 5642,1285.5C 5641.05,1285.91 5640.39,1286.57 5640,1287.5C 5639.15,1285.4 5637.98,1285.4 5636.5,1287.5C 5635.51,1287.33 5634.84,1287.66 5634.5,1288.5C 5633.21,1288.26 5632.21,1288.6 5631.5,1289.5C 5623.45,1292.6 5615.45,1295.6 5607.5,1298.5C 5606.91,1298.29 5606.41,1297.96 5606,1297.5C 5604.41,1299.03 5602.58,1300.19 5600.5,1301C 5595.54,1301.57 5590.87,1302.74 5586.5,1304.5C 5582.49,1306.35 5577.99,1308.02 5573,1309.5C 5569.91,1309.1 5567.08,1310.1 5564.5,1312.5C 5562.38,1312.62 5560.21,1312.62 5558,1312.5C 5556.11,1313.13 5554.44,1314.13 5553,1315.5C 5552.67,1315.17 5552.33,1314.83 5552,1314.5C 5549.37,1315.06 5546.87,1316.23 5544.5,1318C 5538.47,1317.85 5533.14,1319.68 5528.5,1323.5C 5527.91,1323.29 5527.41,1322.96 5527,1322.5C 5521.61,1324.7 5516.11,1326.7 5510.5,1328.5C 5509.83,1328.17 5509.17,1327.83 5508.5,1327.5C 5507.09,1328.81 5505.42,1329.64 5503.5,1330C 5503.83,1330.33 5504.17,1330.67 5504.5,1331C 5501.2,1331.46 5498.04,1332.29 5495,1333.5C 5494.59,1333.04 5494.09,1332.71 5493.5,1332.5C 5490.49,1334.45 5487.32,1336.12 5484,1337.5C 5483.37,1335.01 5482.54,1335.01 5481.5,1337.5C 5479.38,1337.62 5477.21,1337.62 5475,1337.5C 5471.81,1340.01 5468.64,1341.67 5465.5,1342.5C 5462.62,1343.6 5459.78,1343.6 5457,1342.5C 5453.75,1345.34 5450.08,1347.34 5446,1348.5C 5444.6,1348.5 5443.1,1348.17 5441.5,1347.5C 5440.83,1348.17 5440.17,1348.83 5439.5,1349.5C 5438.31,1348.35 5437.31,1348.35 5436.5,1349.5C 5435.31,1351.06 5433.14,1352.06 5430,1352.5C 5427.59,1352.33 5425.26,1352.33 5423,1352.5C 5421.99,1354.86 5420.65,1356.2 5419,1356.5C 5416.77,1356.63 5414.43,1356.29 5412,1355.5C 5411.67,1356.17 5411.33,1356.83 5411,1357.5C 5408.91,1357.25 5406.91,1357.25 5405,1357.5C 5403.51,1359.56 5401.51,1360.89 5399,1361.5C 5396.32,1361.18 5393.32,1361.18 5390,1361.5C 5388.18,1364.26 5385.85,1365.26 5383,1364.5C 5374.34,1370.76 5368,1368.43 5364,1357.5C 5361.18,1354.55 5359.34,1351.55 5358.5,1348.5C 5358,1346.39 5356.5,1344.39 5354,1342.5C 5353.03,1340.61 5352.36,1338.61 5352,1336.5C 5348.13,1331.36 5344.29,1326.36 5340.5,1321.5C 5339.26,1316.68 5336.76,1312.68 5333,1309.5C 5332.05,1303.74 5329.21,1299.24 5324.5,1296C 5324.25,1292.63 5322.91,1289.46 5320.5,1286.5C 5317.19,1283.22 5314.85,1279.22 5313.5,1274.5C 5311.26,1271.3 5308.92,1268.14 5306.5,1265C 5306.96,1264.59 5307.29,1264.09 5307.5,1263.5C 5305.94,1261.53 5304.27,1259.7 5302.5,1258C 5302.83,1257.67 5303.17,1257.33 5303.5,1257C 5302.53,1254.37 5300.86,1252.37 5298.5,1251C 5298.5,1249.67 5298.5,1248.33 5298.5,1247C 5293.52,1240.54 5289.19,1233.7 5285.5,1226.5C 5284.78,1224.22 5283.44,1222.38 5281.5,1221C 5281.83,1220.67 5282.17,1220.33 5282.5,1220C 5279.53,1214.55 5276.2,1209.38 5272.5,1204.5C 5272.67,1203.51 5272.34,1202.84 5271.5,1202.5C 5271.14,1200.41 5270.48,1198.41 5269.5,1196.5C 5267.28,1195.08 5265.78,1193.08 5265,1190.5C 5264.35,1191.7 5263.85,1191.7 5263.5,1190.5C 5264,1189.28 5264.33,1188.12 5264.5,1187C 5263.54,1185.58 5262.71,1184.08 5262,1182.5C 5259.2,1179.03 5256.37,1175.53 5253.5,1172C 5253.83,1171.67 5254.17,1171.33 5254.5,1171C 5252.24,1167.28 5249.9,1163.78 5247.5,1160.5C 5247.58,1159.07 5247.25,1157.74 5246.5,1156.5C 5245.37,1154.51 5244.03,1152.84 5242.5,1151.5C 5242.07,1148.8 5240.73,1146.64 5238.5,1145C 5239.17,1142.76 5238.67,1140.59 5237,1138.5C 5235.67,1135.83 5233.67,1133.83 5231,1132.5C 5229.52,1126.88 5227.02,1121.88 5223.5,1117.5C 5222.47,1110.53 5219.47,1105.36 5214.5,1102C 5215.77,1101.02 5215.77,1100.19 5214.5,1099.5C 5213.07,1095.65 5211.41,1091.98 5209.5,1088.5C 5208.36,1087.53 5207.36,1086.36 5206.5,1085C 5207.77,1084.02 5207.77,1083.19 5206.5,1082.5C 5204.8,1078.67 5203.13,1075.34 5201.5,1072.5C 5200.03,1069.92 5199.03,1067.58 5198.5,1065.5C 5197.67,1062.52 5196.34,1059.85 5194.5,1057.5C 5193.41,1055.42 5192.41,1053.25 5191.5,1051C 5191.51,1047.37 5189.84,1044.37 5186.5,1042C 5186.96,1041.59 5187.29,1041.09 5187.5,1040.5C 5185.82,1035.96 5183.49,1031.8 5180.5,1028C 5180.83,1027.67 5181.17,1027.33 5181.5,1027C 5180.81,1025.93 5180.31,1024.77 5180,1023.5C 5176.24,1016.28 5172.41,1009.12 5168.5,1002C 5169.63,1000.98 5169.3,1000.32 5167.5,1000C 5168.93,998.286 5168.59,996.953 5166.5,996C 5166.83,995.667 5167.17,995.333 5167.5,995C 5163.72,989.754 5161.22,983.92 5160,977.5C 5157.94,974.538 5155.78,971.705 5153.5,969C 5154.83,967 5154.83,965 5153.5,963C 5151.5,960 5149.5,957 5147.5,954C 5148.02,953.439 5148.36,952.772 5148.5,952C 5146.22,949.589 5144.89,947.089 5144.5,944.5C 5142.93,940.157 5141.6,936.157 5140.5,932.5C 5137.75,926.309 5135.09,920.142 5132.5,914C 5132.83,913 5133.17,912 5133.5,911C 5131.75,908.982 5130.42,906.815 5129.5,904.5C 5128.01,898.637 5125.68,892.804 5122.5,887C 5122.96,886.586 5123.29,886.086 5123.5,885.5C 5120.98,880.652 5118.65,876.152 5116.5,872C 5117.6,869.502 5117.43,867.002 5116,864.5C 5114.37,862.083 5112.87,859.583 5111.5,857C 5111.03,854.097 5111.03,851.597 5111.5,849.5C 5111.44,847.408 5110.44,845.908 5108.5,845C 5109.63,843.984 5109.3,843.317 5107.5,843C 5108.77,842.023 5108.77,841.189 5107.5,840.5C 5107.45,835.355 5105.95,830.355 5103,825.5C 5102.23,821.853 5101.56,818.186 5101,814.5C 5100.17,813.667 5099.33,812.833 5098.5,812C 5097.92,808.423 5097.92,804.756 5098.5,801C 5097.58,798.706 5096.58,796.539 5095.5,794.5C 5095.18,791.694 5094.18,789.194 5092.5,787C 5093.64,784.239 5093.64,781.406 5092.5,778.5C 5092.03,776.866 5091.03,775.7 5089.5,775C 5090.83,773 5090.83,771 5089.5,769C 5087.4,768.511 5087.06,767.345 5088.5,765.5C 5088.47,763.971 5087.8,762.804 5086.5,762C 5086.56,759.062 5086.56,756.228 5086.5,753.5C 5085.78,750.927 5084.78,748.427 5083.5,746C 5084.02,743.519 5084.02,741.186 5083.5,739C 5082.83,738.667 5082.17,738.333 5081.5,738C 5082.25,735.907 5082.58,733.907 5082.5,732C 5081.83,731.333 5081.17,730.667 5080.5,730C 5080.67,728.883 5081,727.716 5081.5,726.5C 5078.14,719.735 5077.14,712.902 5078.5,706C 5077.15,701.638 5075.81,697.305 5074.5,693C 5075.46,691.853 5075.12,690.853 5073.5,690C 5073.03,687.282 5073.7,684.282 5075.5,681C 5075,677.803 5074,674.803 5072.5,672C 5074.11,666.763 5073.78,661.429 5071.5,656C 5071.95,652.773 5072.95,649.773 5074.5,647C 5074.02,644.101 5073.02,641.434 5071.5,639C 5072.14,635.984 5072.14,633.15 5071.5,630.5C 5072.98,626.38 5074.31,622.213 5075.5,618C 5075.02,616.237 5074.36,614.57 5073.5,613C 5074.11,609.215 5074.11,605.215 5073.5,601C 5074.9,597.543 5076.56,594.209 5078.5,591C 5078.48,588.988 5078.48,586.988 5078.5,585C 5078.12,582.036 5077.12,579.37 5075.5,577C 5077.8,575.887 5078.13,574.387 5076.5,572.5C 5077.37,569.934 5078.37,567.434 5079.5,565C 5079.04,564.586 5078.71,564.086 5078.5,563.5C 5080.35,559.668 5082.02,555.834 5083.5,552C 5083.57,546.634 5083.57,541.301 5083.5,536C 5087.75,520.578 5092.92,505.078 5099,489.5C 5107,476.841 5114.5,463.841 5121.5,450.5C 5127.89,442.777 5133.89,434.777 5139.5,426.5C 5142.5,423.908 5145,420.908 5147,417.5C 5147.91,418.654 5148.75,418.487 5149.5,417C 5149.17,416.667 5148.83,416.333 5148.5,416C 5153.35,412.739 5157.52,408.239 5161,402.5C 5163.67,402.366 5165.5,400.7 5166.5,397.5C 5171.26,396.622 5175.26,394.455 5178.5,391C 5178.17,390.667 5177.83,390.333 5177.5,390C 5179.59,389.331 5181.26,388.164 5182.5,386.5C 5184.47,385.021 5187.14,383.688 5190.5,382.5C 5192.64,381.967 5194.47,380.3 5196,377.5C 5197.84,378.833 5198.34,378.666 5197.5,377C 5202,375.576 5205.66,373.91 5208.5,372C 5209.17,371 5209.83,370 5210.5,369C 5219.04,365.007 5227.38,361.84 5235.5,359.5C 5237.52,357.967 5240.36,356.634 5244,355.5C 5244.56,356.022 5245.23,356.355 5246,356.5C 5247.66,354.427 5249.33,353.094 5251,352.5C 5252.29,353.791 5253.46,353.791 5254.5,352.5C 5256.9,351.318 5259.4,351.318 5262,352.5C 5264.89,350.288 5268.05,348.954 5271.5,348.5C 5272.72,347.972 5273.89,347.305 5275,346.5C 5278.09,347.033 5281.25,347.367 5284.5,347.5C 5285.48,347.023 5286.31,346.357 5287,345.5C 5290.07,345.524 5293.07,345.857 5296,346.5C 5296.67,343.833 5297.33,343.833 5298,346.5C 5298.71,345.619 5299.54,344.953 5300.5,344.5C 5301.62,345.014 5302.79,345.347 5304,345.5C 5304.69,343.109 5305.69,343.109 5307,345.5C 5309.48,344.553 5311.81,344.553 5314,345.5C 5315.67,344.833 5317.33,344.167 5319,343.5C 5321,343.5 5323,343.5 5325,343.5C 5329.58,345.013 5333.92,346.346 5338,347.5C 5339,346.833 5340,346.167 5341,345.5C 5346.61,346.648 5352.78,348.148 5359.5,350C 5376.42,356.863 5393.42,363.529 5410.5,370C 5418.5,374.5 5426,379.666 5433,385.5C 5433.33,385.167 5433.67,384.833 5434,384.5C 5438.59,386.279 5442.42,388.946 5445.5,392.5 Z"/></g>
<g><path style="opacity:1" fill="#5c321e" d="M 5215.5,83.5 C 5216.83,84.1667 5216.83,84.1667 5215.5,83.5 Z"/></g>
<g><path style="opacity:1" fill="#5c321e" d="M 5187.5,90.5 C 5188.83,91.1667 5188.83,91.1667 5187.5,90.5 Z"/></g>
<g><path style="opacity:1" fill="#5c321e" d="M 5148.5,104.5 C 5147.83,103.167 5147.83,103.167 5148.5,104.5 Z"/></g>
<g><path style="opacity:1" fill="#5c321e" d="M 5043.5,156.5 C 5042.83,155.167 5042.83,155.167 5043.5,156.5 Z"/></g>
<g><path style="opacity:1" fill="#5c321e" d="M 5587.5,157.5 C 5588.83,158.167 5588.83,158.167 5587.5,157.5 Z"/></g>
<g><path style="opacity:1" fill="#5c321e" d="M 5594.5,163.5 C 5595.83,164.167 5595.83,164.167 5594.5,163.5 Z"/></g>
<g><path style="opacity:1" fill="#5c321e" d="M 5626.5,187.5 C 5627.83,188.167 5627.83,188.167 5626.5,187.5 Z"/></g>
<g><path style="opacity:1" fill="#5c321e" d="M 5637.5,197.5 C 5638.83,198.167 5638.83,198.167 5637.5,197.5 Z"/></g>
<g><path style="opacity:1" fill="#5c321e" d="M 4962.5,222.5 C 4961.83,221.167 4961.83,221.167 4962.5,222.5 Z"/></g>
<g><path style="opacity:1" fill="#5c321e" d="M 4938.5,248.5 C 4937.83,247.167 4937.83,247.167 4938.5,248.5 Z"/></g>
<g><path style="opacity:1" fill="#5c321e" d="M 4934.5,252.5 C 4933.83,251.167 4933.83,251.167 4934.5,252.5 Z"/></g>
<g><path style="opacity:1" fill="#5c321e" d="M 5699.5,270.5 C 5700.83,271.167 5700.83,271.167 5699.5,270.5 Z"/></g>
<g><path style="opacity:1" fill="#5c321e" d="M 5712.5,289.5 C 5713.83,290.167 5713.83,290.167 5712.5,289.5 Z"/></g>
<g><path style="opacity:1" fill="#5c321e" d="M 4902.5,292.5 C 4901.83,291.167 4901.83,291.167 4902.5,292.5 Z"/></g>
<g><path style="opacity:1" fill="#5c321e" d="M 5721.5,303.5 C 5722.83,304.167 5722.83,304.167 5721.5,303.5 Z"/></g>
<g><path style="opacity:1" fill="#5c321e" d="M 4875.5,336.5 C 4874.83,335.167 4874.83,335.167 4875.5,336.5 Z"/></g>
<g><path style="opacity:1" fill="#5c321e" d="M 5742.5,339.5 C 5743.83,340.167 5743.83,340.167 5742.5,339.5 Z"/></g>
<g><path style="opacity:1" fill="#5c321e" d="M 5862.5,342.5 C 5861.83,341.167 5861.83,341.167 5862.5,342.5 Z"/></g>
<g><path style="opacity:1" fill="#5c321e" d="M 5830.5,351.5 C 5829.83,350.167 5829.83,350.167 5830.5,351.5 Z"/></g>
<g><path style="opacity:1" fill="#5c321e" d="M 5801.5,359.5 C 5800.83,358.167 5800.83,358.167 5801.5,359.5 Z"/></g>
<g><path style="opacity:1" fill="#5c321e" d="M 5756.5,368.5 C 5757.83,369.167 5757.83,369.167 5756.5,368.5 Z"/></g>
<g><path style="opacity:1" fill="#5c321e" d="M 6198.5,389.5 C 6199.83,390.167 6199.83,390.167 6198.5,389.5 Z"/></g>
<g><path style="opacity:1" fill="#5c321e" d="M 6239.5,414.5 C 6240.83,415.167 6240.83,415.167 6239.5,414.5 Z"/></g>
<g><path style="opacity:1" fill="#5c321e" d="M 6331.5,499.5 C 6332.83,500.167 6332.83,500.167 6331.5,499.5 Z"/></g>
<g><path style="opacity:1" fill="#5c321e" d="M 6339.5,511.5 C 6340.83,512.167 6340.83,512.167 6339.5,511.5 Z"/></g>
<g><path style="opacity:1" fill="#5c321e" d="M 6347.5,1144.5 C 6348.83,1145.17 6348.83,1145.17 6347.5,1144.5 Z"/></g>
<g><path style="opacity:1" fill="#5c321e" d="M 6316.5,1184.5 C 6317.83,1185.17 6317.83,1185.17 6316.5,1184.5 Z"/></g>
<g><path style="opacity:1" fill="#5c321e" d="M 2041.5,1188.5 C 2151.83,1188.5 2262.17,1188.5 2372.5,1188.5C 2372.5,1365.17 2372.5,1541.83 2372.5,1718.5C 2527.83,1718.5 2683.17,1718.5 2838.5,1718.5C 2838.5,1822.83 2838.5,1927.17 2838.5,2031.5C 2683.17,2031.5 2527.83,2031.5 2372.5,2031.5C 2373.14,2224.83 2373.98,2418.17 2375,2611.5C 2375.19,2619.28 2376.19,2626.94 2378,2634.5C 2382.51,2647.18 2387.84,2659.52 2394,2671.5C 2409.25,2683.81 2426.75,2689.97 2446.5,2690C 2561.84,2691.13 2677.17,2692.29 2792.5,2693.5C 2792.5,2797.83 2792.5,2902.17 2792.5,3006.5C 2601.84,3007.71 2411.17,3008.21 2220.5,3008C 2164.28,3003.64 2118.11,2980.14 2082,2937.5C 2055.41,2902.08 2041.75,2862.08 2041,2817.5C 2041.41,2555.5 2041.57,2293.5 2041.5,2031.5C 1913.83,2031.5 1786.17,2031.5 1658.5,2031.5C 1658.5,1927.17 1658.5,1822.83 1658.5,1718.5C 1786.17,1718.5 1913.83,1718.5 2041.5,1718.5C 2041.5,1541.83 2041.5,1365.17 2041.5,1188.5 Z"/></g>
<g><path style="opacity:1" fill="#5c321e" d="M 3496.5,1188.5 C 3606.5,1188.5 3716.5,1188.5 3826.5,1188.5C 3826.5,1365.17 3826.5,1541.83 3826.5,1718.5C 3982.17,1718.5 4137.83,1718.5 4293.5,1718.5C 4293.5,1822.83 4293.5,1927.17 4293.5,2031.5C 4137.83,2031.5 3982.17,2031.5 3826.5,2031.5C 3827.18,2228.5 3828.35,2425.5 3830,2622.5C 3833.51,2640.2 3839.85,2656.87 3849,2672.5C 3864.13,2684.1 3881.3,2689.93 3900.5,2690C 4016.17,2691.13 4131.84,2692.3 4247.5,2693.5C 4247.5,2797.83 4247.5,2902.17 4247.5,3006.5C 4056.5,3007.71 3865.5,3008.21 3674.5,3008C 3618.86,3003.77 3573.03,2980.6 3537,2938.5C 3513.05,2906.9 3499.38,2871.24 3496,2831.5C 3495.26,2564.83 3495.42,2298.17 3496.5,2031.5C 3368.5,2031.5 3240.5,2031.5 3112.5,2031.5C 3112.5,1927.17 3112.5,1822.83 3112.5,1718.5C 3240.5,1718.5 3368.5,1718.5 3496.5,1718.5C 3496.5,1541.83 3496.5,1365.17 3496.5,1188.5 Z"/></g>
<g><path style="opacity:1" fill="#5c321e" d="M 6301.5,1201.5 C 6302.83,1202.17 6302.83,1202.17 6301.5,1201.5 Z"/></g>
<g><path style="opacity:1" fill="#5c321e" d="M 6295.5,1208.5 C 6295.83,1208.5 6296.17,1208.5 6296.5,1208.5C 6296.31,1209.17 6295.98,1209.17 6295.5,1208.5 Z"/></g>
<g><path style="opacity:1" fill="#5c321e" d="M 6294.5,1209.5 C 6294.83,1209.5 6295.17,1209.5 6295.5,1209.5C 6295.31,1210.17 6294.98,1210.17 6294.5,1209.5 Z"/></g>
<g><path style="opacity:1" fill="#5c321e" d="M 6264.5,1242.5 C 6265.83,1243.17 6265.83,1243.17 6264.5,1242.5 Z"/></g>
<g><path style="opacity:1" fill="#5c321e" d="M 6256.5,1247.5 C 6257.83,1248.17 6257.83,1248.17 6256.5,1247.5 Z"/></g>
<g><path style="opacity:1" fill="#5c321e" d="M 6255.5,1248.5 C 6255.83,1248.5 6256.17,1248.5 6256.5,1248.5C 6256.31,1249.17 6255.98,1249.17 6255.5,1248.5 Z"/></g>
<g><path style="opacity:1" fill="#5c321e" d="M 6243.5,1260.5 C 6243.83,1260.5 6244.17,1260.5 6244.5,1260.5C 6244.31,1261.17 6243.98,1261.17 6243.5,1260.5 Z"/></g>
<g><path style="opacity:1" fill="#5c321e" d="M 6187.5,1307.5 C 6187.83,1307.5 6188.17,1307.5 6188.5,1307.5C 6188.17,1310.17 6187.83,1310.17 6187.5,1307.5 Z"/></g>
<g><path style="opacity:1" fill="#5c321e" d="M 6180.5,1313.5 C 6181.83,1314.17 6181.83,1314.17 6180.5,1313.5 Z"/></g>
<g><path style="opacity:1" fill="#5c321e" d="M 6173.5,1318.5 C 6173.83,1318.5 6174.17,1318.5 6174.5,1318.5C 6174.31,1319.17 6173.98,1319.17 6173.5,1318.5 Z"/></g>
<g><path style="opacity:1" fill="#5c321e" d="M 6138.5,1343.5 C 6138.83,1343.5 6139.17,1343.5 6139.5,1343.5C 6139.31,1344.17 6138.98,1344.17 6138.5,1343.5 Z"/></g>
<g><path style="opacity:1" fill="#5c321e" d="M 6135.5,1345.5 C 6136.83,1346.17 6136.83,1346.17 6135.5,1345.5 Z"/></g>
<g><path style="opacity:1" fill="#5c321e" d="M 6132.5,1348.5 C 6133.83,1349.17 6133.83,1349.17 6132.5,1348.5 Z"/></g>
<g><path style="opacity:1" fill="#5c321e" d="M 6119.5,1356.5 C 6119.83,1356.5 6120.17,1356.5 6120.5,1356.5C 6120.31,1357.17 6119.98,1357.17 6119.5,1356.5 Z"/></g>
<g><path style="opacity:1" fill="#5c321e" d="M 6118.5,1357.5 C 6118.83,1357.5 6119.17,1357.5 6119.5,1357.5C 6119.31,1358.17 6118.98,1358.17 6118.5,1357.5 Z"/></g>
<g><path style="opacity:1" fill="#5c321e" d="M 6109.5,1363.5 C 6110.24,1363.37 6110.91,1363.54 6111.5,1364C 6110.56,1364.69 6109.9,1364.53 6109.5,1363.5 Z"/></g>
<g><path style="opacity:1" fill="#5c321e" d="M 6100.5,1368.5 C 6100.83,1368.5 6101.17,1368.5 6101.5,1368.5C 6101.31,1369.17 6100.98,1369.17 6100.5,1368.5 Z"/></g>
<g><path style="opacity:1" fill="#5c321e" d="M 6096.5,1371.5 C 6097.83,1372.17 6097.83,1372.17 6096.5,1371.5 Z"/></g>
<g><path style="opacity:1" fill="#5c321e" d="M 6095.5,1372.5 C 6095.83,1372.5 6096.17,1372.5 6096.5,1372.5C 6096.31,1373.17 6095.98,1373.17 6095.5,1372.5 Z"/></g>
<g><path style="opacity:1" fill="#5c321e" d="M 6040.5,1402.5 C 6040.83,1402.5 6041.17,1402.5 6041.5,1402.5C 6041.31,1403.17 6040.98,1403.17 6040.5,1402.5 Z"/></g>
<g><path style="opacity:1" fill="#5c321e" d="M 6029.5,1408.5 C 6030.83,1409.17 6030.83,1409.17 6029.5,1408.5 Z"/></g>
<g><path style="opacity:1" fill="#5c321e" d="M 6027.5,1409.5 C 6028.83,1410.17 6028.83,1410.17 6027.5,1409.5 Z"/></g>
<g><path style="opacity:1" fill="#5c321e" d="M 5990.5,1428.5 C 5990.83,1428.5 5991.17,1428.5 5991.5,1428.5C 5991.31,1429.17 5990.98,1429.17 5990.5,1428.5 Z"/></g>
<g><path style="opacity:1" fill="#5c321e" d="M 5981.5,1433.5 C 5982.83,1434.17 5982.83,1434.17 5981.5,1433.5 Z"/></g>
<g><path style="opacity:1" fill="#5c321e" d="M 5979.5,1434.5 C 5980.83,1435.17 5980.83,1435.17 5979.5,1434.5 Z"/></g>
<g><path style="opacity:1" fill="#5c321e" d="M 5969.5,1439.5 C 5969.5,1439.17 5969.5,1438.83 5969.5,1438.5C 5970.17,1438.5 5970.83,1438.5 5971.5,1438.5C 5971.16,1439.34 5970.49,1439.67 5969.5,1439.5 Z"/></g>
<g><path style="opacity:1" fill="#5c321e" d="M 5968.5,1439.5 C 5968.83,1439.5 5969.17,1439.5 5969.5,1439.5C 5969.31,1440.17 5968.98,1440.17 5968.5,1439.5 Z"/></g>
<g><path style="opacity:1" fill="#5c321e" d="M 5964.5,1441.5 C 5965.83,1442.17 5965.83,1442.17 5964.5,1441.5 Z"/></g>
<g><path style="opacity:1" fill="#5c321e" d="M 5959.5,1443.5 C 5960.24,1443.37 5960.91,1443.54 5961.5,1444C 5960.56,1444.69 5959.9,1444.53 5959.5,1443.5 Z"/></g>
<g><path style="opacity:1" fill="#5c321e" d="M 5955.5,1445.5 C 5955.83,1445.5 5956.17,1445.5 5956.5,1445.5C 5956.31,1446.17 5955.98,1446.17 5955.5,1445.5 Z"/></g>
<g><path style="opacity:1" fill="#5c321e" d="M 5954.5,1446.5 C 5954.83,1446.5 5955.17,1446.5 5955.5,1446.5C 5955.31,1447.17 5954.98,1447.17 5954.5,1446.5 Z"/></g>
<g><path style="opacity:1" fill="#5c321e" d="M 5952.5,1447.5 C 5953.83,1448.17 5953.83,1448.17 5952.5,1447.5 Z"/></g>
<g><path style="opacity:1" fill="#5c321e" d="M 5932.5,1456.5 C 5933.17,1456.5 5933.83,1456.5 5934.5,1456.5C 5933.83,1457.83 5933.17,1457.83 5932.5,1456.5 Z"/></g>
<g><path style="opacity:1" fill="#5c321e" d="M 5869.5,1484.5 C 5870.17,1484.5 5870.83,1484.5 5871.5,1484.5C 5870.83,1485.83 5870.17,1485.83 5869.5,1484.5 Z"/></g>
<g><path style="opacity:1" fill="#5c321e" d="M 5844.5,1494.5 C 5844.83,1494.5 5845.17,1494.5 5845.5,1494.5C 5845.31,1495.17 5844.98,1495.17 5844.5,1494.5 Z"/></g>
<g><path style="opacity:1" fill="#5c321e" d="M 5816.5,1505.5 C 5816.83,1505.5 5817.17,1505.5 5817.5,1505.5C 5817.31,1506.17 5816.98,1506.17 5816.5,1505.5 Z"/></g>
<g><path style="opacity:1" fill="#5c321e" d="M 5796.5,1513.5 C 5797.83,1514.17 5797.83,1514.17 5796.5,1513.5 Z"/></g>
<g><path style="opacity:1" fill="#5c321e" d="M 5734.5,1536.5 C 5734.83,1536.5 5735.17,1536.5 5735.5,1536.5C 5735.31,1537.17 5734.98,1537.17 5734.5,1536.5 Z"/></g>
<g><path style="opacity:1" fill="#5c321e" d="M 5722.5,1540.5 C 5723.83,1541.17 5723.83,1541.17 5722.5,1540.5 Z"/></g>
<g><path style="opacity:1" fill="#5c321e" d="M 5688.5,1552.5 C 5688.83,1552.5 5689.17,1552.5 5689.5,1552.5C 5689.31,1553.17 5688.98,1553.17 5688.5,1552.5 Z"/></g>
<g><path style="opacity:1" fill="#5c321e" d="M 5645.5,1566.5 C 5645.83,1566.5 5646.17,1566.5 5646.5,1566.5C 5646.31,1567.17 5645.98,1567.17 5645.5,1566.5 Z"/></g>
<g><path style="opacity:1" fill="#5c321e" d="M 5632.5,1570.5 C 5632.83,1570.5 5633.17,1570.5 5633.5,1570.5C 5633.31,1571.17 5632.98,1571.17 5632.5,1570.5 Z"/></g>
<g><path style="opacity:1" fill="#5c321e" d="M 5625.5,1572.5 C 5625.83,1572.5 5626.17,1572.5 5626.5,1572.5C 5626.31,1573.17 5625.98,1573.17 5625.5,1572.5 Z"/></g>
<g><path style="opacity:1" fill="#5c321e" d="M 5613.5,1576.5 C 5612.83,1577.17 5612.83,1577.17 5613.5,1576.5 Z"/></g>
<g><path style="opacity:1" fill="#5c321e" d="M 5598.5,1580.5 C 5598.83,1580.5 5599.17,1580.5 5599.5,1580.5C 5599.31,1581.17 5598.98,1581.17 5598.5,1580.5 Z"/></g>
<g><path style="opacity:1" fill="#5c321e" d="M 5578.5,1586.5 C 5578.83,1586.5 5579.17,1586.5 5579.5,1586.5C 5579.31,1587.17 5578.98,1587.17 5578.5,1586.5 Z"/></g>
<g><path style="opacity:1" fill="#5c321e" d="M 5561.5,1592.5 C 5562.83,1593.17 5562.83,1593.17 5561.5,1592.5 Z"/></g>
<g><path style="opacity:1" fill="#5c321e" d="M 5550.5,1595.5 C 5551.17,1595.5 5551.83,1595.5 5552.5,1595.5C 5551.83,1596.83 5551.17,1596.83 5550.5,1595.5 Z"/></g>
<g><path style="opacity:1" fill="#5c321e" d="M 5546.5,1597.5 C 5546.83,1597.5 5547.17,1597.5 5547.5,1597.5C 5547.31,1598.17 5546.98,1598.17 5546.5,1597.5 Z"/></g>
<g><path style="opacity:1" fill="#5c321e" d="M 5519.5,1606.5 C 5520.83,1607.17 5520.83,1607.17 5519.5,1606.5 Z"/></g>
<g><path style="opacity:1" fill="#5c321e" d="M 5512.5,1607.5 C 5512.83,1607.5 5513.17,1607.5 5513.5,1607.5C 5513.31,1608.17 5512.98,1608.17 5512.5,1607.5 Z"/></g>
<g><path style="opacity:1" fill="#5c321e" d="M 686.5,1674.5 C 770.639,1669.89 849.973,1687.06 924.5,1726C 973.138,1753.3 1011.97,1790.8 1041,1838.5C 1045.92,1846.67 1050.59,1855.01 1055,1863.5C 1055.5,1866.48 1055.66,1869.48 1055.5,1872.5C 1070.5,1872.5 1085.5,1872.5 1100.5,1872.5C 1100.5,1821.17 1100.5,1769.83 1100.5,1718.5C 1210.5,1718.5 1320.5,1718.5 1430.5,1718.5C 1430.83,2021.85 1432,2325.18 1434,2628.5C 1435.73,2642.69 1440.06,2656.02 1447,2668.5C 1460.77,2681.8 1477.27,2689.3 1496.5,2691C 1514.85,2691.95 1533.18,2692.78 1551.5,2693.5C 1551.5,2797.83 1551.5,2902.17 1551.5,3006.5C 1476.66,3006.98 1401.83,3007.65 1327,3008.5C 1267.77,3010.54 1215.94,2992.37 1171.5,2954C 1145.82,2926.13 1130.15,2893.3 1124.5,2855.5C 1122.95,2844.86 1121.61,2834.19 1120.5,2823.5C 1107.09,2820.05 1094.09,2821.22 1081.5,2827C 1077.95,2830.88 1074.78,2835.05 1072,2839.5C 1030.78,2938.38 958.283,3001.21 854.5,3028C 725.895,3060.42 600.895,3050.09 479.5,2997C 446.387,2981.17 415.387,2962.17 386.5,2940C 350.481,2911.32 316.981,2879.82 286,2845.5C 231.581,2777.66 193.248,2701.33 171,2616.5C 153.871,2551.26 144.204,2484.93 142,2417.5C 138.671,2337.73 143.004,2258.4 155,2179.5C 179.506,2023.24 251.339,1894.07 370.5,1792C 463.72,1720.97 569.053,1681.81 686.5,1674.5 Z M 763.5,1995.5 C 819.257,1992.62 872.924,2001.79 924.5,2023C 1012.08,2067.61 1066.25,2138.11 1087,2234.5C 1099.24,2288.86 1103.57,2343.86 1100,2399.5C 1098.37,2453.67 1087.03,2505.67 1066,2555.5C 1040.33,2610.51 1001.83,2654.35 950.5,2687C 902.261,2715.27 850.095,2729.1 794,2728.5C 736.266,2729.76 681.766,2717.26 630.5,2691C 586.05,2666.22 551.217,2631.72 526,2587.5C 496.795,2535.69 480.461,2480.02 477,2420.5C 472.455,2363.54 474.789,2306.87 484,2250.5C 494.444,2192.76 517.777,2141.1 554,2095.5C 611.035,2035.74 680.868,2002.4 763.5,1995.5 Z"/></g>
<g><path style="opacity:1" fill="#5c321e" d="M 6405.5,1675.5 C 6514.89,1673.28 6619.89,1693.45 6720.5,1736C 6843.82,1791.65 6937.99,1878.82 7003,1997.5C 7030.93,2049.95 7050.93,2105.28 7063,2163.5C 7064.44,2172.79 7064.78,2182.13 7064,2191.5C 7063.75,2192.62 7063.25,2193.62 7062.5,2194.5C 7033.71,2203.71 7004.71,2212.21 6975.5,2220C 6903.21,2238.82 6830.88,2257.49 6758.5,2276C 6751.55,2277.23 6744.55,2277.73 6737.5,2277.5C 6722.92,2195.17 6685.92,2125 6626.5,2067C 6593.3,2040.74 6555.97,2022.4 6514.5,2012C 6475.1,2001.92 6435.1,1998.59 6394.5,2002C 6328.21,2004.65 6267.88,2024.65 6213.5,2062C 6200.45,2072.72 6187.12,2083.05 6173.5,2093C 6133.39,2131.02 6105.89,2176.85 6091,2230.5C 6068.46,2313.11 6065.46,2396.44 6082,2480.5C 6091.33,2526.47 6110.33,2567.81 6139,2604.5C 6195.82,2672 6268.32,2710.83 6356.5,2721C 6412.69,2727.46 6468.36,2724.46 6523.5,2712C 6596.47,2692.99 6651.3,2650.82 6688,2585.5C 6711.12,2543.32 6727.62,2498.65 6737.5,2451.5C 6757.05,2453.26 6776.39,2456.43 6795.5,2461C 6882.63,2482.53 6969.63,2504.53 7056.5,2527C 7063,2529.05 7065.34,2533.55 7063.5,2540.5C 7059.69,2594.39 7046.19,2645.72 7023,2694.5C 6943.72,2859.43 6816.22,2967.93 6640.5,3020C 6474.44,3064.38 6310.11,3058.72 6147.5,3003C 6046.14,2967.44 5959.31,2910.27 5887,2831.5C 5825.8,2760.78 5783.13,2679.78 5759,2588.5C 5719.74,2434.99 5722.74,2282.32 5768,2130.5C 5810.47,1989.76 5892.3,1878.26 6013.5,1796C 6116.03,1728.6 6228.7,1689.6 6351.5,1679C 6369.64,1677.57 6387.64,1676.41 6405.5,1675.5 Z"/></g>
<g><path style="opacity:1" fill="#5c321e" d="M 5164.5,3250.5 C 5165.83,3251.17 5165.83,3251.17 5164.5,3250.5 Z"/></g>
<g><path style="opacity:1" fill="#5c321e" d="M 5170.5,3254.5 C 5171.83,3255.17 5171.83,3255.17 5170.5,3254.5 Z"/></g>
<g><path style="opacity:1" fill="#5c321e" d="M 5179.5,3264.5 C 5180.83,3265.17 5180.83,3265.17 5179.5,3264.5 Z"/></g>
<g><path style="opacity:1" fill="#5c321e" d="M 5176.5,3402.5 C 5177.83,3403.17 5177.83,3403.17 5176.5,3402.5 Z"/></g>
<g><path style="opacity:1" fill="#5c321e" d="M 5165.5,3414.5 C 5166.83,3415.17 5166.83,3415.17 5165.5,3414.5 Z"/></g>
<g><path style="opacity:1" fill="#5c321e" d="M 5159.5,3419.5 C 5160.83,3420.17 5160.83,3420.17 5159.5,3419.5 Z"/></g>
<g><path style="opacity:1" fill="#5c321e" d="M 5155.5,3423.5 C 5156.83,3424.17 5156.83,3424.17 5155.5,3423.5 Z"/></g>
<g><path style="opacity:1" fill="#5c321e" d="M 5147.5,3427.5 C 5148.83,3428.17 5148.83,3428.17 5147.5,3427.5 Z"/></g>
<g><path style="opacity:1" fill="#5c321e" d="M 5135.5,3434.5 C 5135.83,3434.5 5136.17,3434.5 5136.5,3434.5C 5136.31,3435.17 5135.98,3435.17 5135.5,3434.5 Z"/></g>
<g><path style="opacity:1" fill="#5c321e" d="M 5081.5,3441.5 C 5081.83,3441.5 5082.17,3441.5 5082.5,3441.5C 5082.31,3442.17 5081.98,3442.17 5081.5,3441.5 Z"/></g>
<g><path style="opacity:1" fill="#5c321e" d="M 5100.5,3441.5 C 5100.83,3441.5 5101.17,3441.5 5101.5,3441.5C 5101.31,3442.17 5100.98,3442.17 5100.5,3441.5 Z"/></g>
<g><path style="opacity:1" fill="#5c321e" d="M 5092.5,3442.5 C 5092.83,3442.5 5093.17,3442.5 5093.5,3442.5C 5093.31,3443.17 5092.98,3443.17 5092.5,3442.5 Z"/></g>
<g><path style="opacity:1" fill="#5c321e" d="M 5094.5,3442.5 C 5094.83,3442.5 5095.17,3442.5 5095.5,3442.5C 5095.31,3443.17 5094.98,3443.17 5094.5,3442.5 Z"/></g>
<g><path style="opacity:1" fill="#5c321e" d="M 4795.5,3626.5 C 4795.83,3626.5 4796.17,3626.5 4796.5,3626.5C 4796.31,3627.17 4795.98,3627.17 4795.5,3626.5 Z"/></g>
<g><path style="opacity:1" fill="#5c321e" d="M 4946.5,3640.5 C 4947.83,3641.17 4947.83,3641.17 4946.5,3640.5 Z"/></g>
<g><path style="opacity:1" fill="#5c321e" d="M 4930.5,3650.5 C 4930.83,3650.5 4931.17,3650.5 4931.5,3650.5C 4931.31,3651.17 4930.98,3651.17 4930.5,3650.5 Z"/></g>
<g><path style="opacity:1" fill="#5c321e" d="M 4926.5,3652.5 C 4927.17,3652.5 4927.83,3652.5 4928.5,3652.5C 4927.83,3653.83 4927.17,3653.83 4926.5,3652.5 Z"/></g>
<g><path style="opacity:1" fill="#5c321e" d="M 4894.5,3657.5 C 4894.83,3657.5 4895.17,3657.5 4895.5,3657.5C 4895.31,3658.17 4894.98,3658.17 4894.5,3657.5 Z"/></g>
<g><path style="opacity:1" fill="#5c321e" d="M 4974.5,3792.5 C 4975.83,3793.17 4975.83,3793.17 4974.5,3792.5 Z"/></g>
<g><path style="opacity:1" fill="#5c321e" d="M 4987.5,3814.5 C 4988.83,3815.17 4988.83,3815.17 4987.5,3814.5 Z"/></g>
<g><path style="opacity:1" fill="#5c321e" d="M 4592.5,3863.5 C 4592.83,3863.5 4593.17,3863.5 4593.5,3863.5C 4593.31,3864.17 4592.98,3864.17 4592.5,3863.5 Z"/></g>
<g><path style="opacity:1" fill="#5c321e" d="M 4972.5,3930.5 C 4973.83,3931.17 4973.83,3931.17 4972.5,3930.5 Z"/></g>
<g><path style="opacity:1" fill="#5c321e" d="M 4554.5,3931.5 C 4555.83,3932.17 4555.83,3932.17 4554.5,3931.5 Z"/></g>
<g><path style="opacity:1" fill="#5c321e" d="M 4543.5,3947.5 C 4544.83,3948.17 4544.83,3948.17 4543.5,3947.5 Z"/></g>
<g><path style="opacity:1" fill="#5c321e" d="M 4954.5,3949.5 C 4955.83,3950.17 4955.83,3950.17 4954.5,3949.5 Z"/></g>
<g><path style="opacity:1" fill="#5c321e" d="M 4950.5,3951.5 C 4950.83,3951.5 4951.17,3951.5 4951.5,3951.5C 4951.31,3952.17 4950.98,3952.17 4950.5,3951.5 Z"/></g>
<g><path style="opacity:1" fill="#5c321e" d="M 4537.5,3952.5 C 4537.83,3952.5 4538.17,3952.5 4538.5,3952.5C 4538.31,3953.17 4537.98,3953.17 4537.5,3952.5 Z"/></g>
<g><path style="opacity:1" fill="#5c321e" d="M 4948.5,3952.5 C 4949.83,3953.17 4949.83,3953.17 4948.5,3952.5 Z"/></g>
<g><path style="opacity:1" fill="#5c321e" d="M 4529.5,3961.5 C 4529.83,3961.5 4530.17,3961.5 4530.5,3961.5C 4530.31,3962.17 4529.98,3962.17 4529.5,3961.5 Z"/></g>
<g><path style="opacity:1" fill="#5c321e" d="M 4919.5,3965.5 C 4919.83,3965.5 4920.17,3965.5 4920.5,3965.5C 4920.31,3966.17 4919.98,3966.17 4919.5,3965.5 Z"/></g>
<g><path style="opacity:1" fill="#5c321e" d="M 4517.5,3971.5 C 4517.83,3971.5 4518.17,3971.5 4518.5,3971.5C 4518.31,3972.17 4517.98,3972.17 4517.5,3971.5 Z"/></g>
<g><path style="opacity:1" fill="#5c321e" d="M 4510.5,3977.5 C 4510.83,3977.5 4511.17,3977.5 4511.5,3977.5C 4511.31,3978.17 4510.98,3978.17 4510.5,3977.5 Z"/></g>
<g><path style="opacity:1" fill="#5c321e" d="M 4443.5,4005.5 C 4442.83,4006.17 4442.83,4006.17 4443.5,4005.5 Z"/></g>
<g><path style="opacity:1" fill="#5c321e" d="M 4419.5,4008.5 C 4419.83,4008.5 4420.17,4008.5 4420.5,4008.5C 4420.31,4009.17 4419.98,4009.17 4419.5,4008.5 Z"/></g>
<g><path style="opacity:1" fill="#5c321e" d="M 4389.5,4009.5 C 4389.83,4009.5 4390.17,4009.5 4390.5,4009.5C 4390.31,4010.17 4389.98,4010.17 4389.5,4009.5 Z"/></g>
<g><path style="opacity:1" fill="#5c321e" d="M 4412.5,4009.5 C 4412.83,4009.5 4413.17,4009.5 4413.5,4009.5C 4413.31,4010.17 4412.98,4010.17 4412.5,4009.5 Z"/></g>
</svg>
