<?xml version="1.0" encoding="UTF-8"?>
<!DOCTYPE svg PUBLIC "-//W3C//DTD SVG 1.1//EN" "http://www.w3.org/Graphics/SVG/1.1/DTD/svg11.dtd">
<svg xmlns="http://www.w3.org/2000/svg" version="1.1" width="7211px" height="4108px" style="shape-rendering:geometricPrecision; text-rendering:geometricPrecision; image-rendering:optimizeQuality; fill-rule:evenodd; clip-rule:evenodd" xmlns:xlink="http://www.w3.org/1999/xlink">
<g><path style="opacity:1" fill="#5c321e" d="M 5296.5,71.5 C 5317.35,69.1055 5337.35,72.1055 5356.5,80.5C 5366.71,78.0185 5377.05,76.8518 5387.5,77C 5391.98,77.8706 5396.32,79.2039 5400.5,81C 5407.66,84.7471 5414.66,88.7471 5421.5,93C 5425.49,93.4988 5429.49,93.6655 5433.5,93.5C 5433.18,90.4281 5433.52,87.4281 5434.5,84.5C 5476.08,95.9697 5516.08,111.47 5554.5,131C 5570.43,140.605 5586.1,150.605 5601.5,161C 5608.06,165.954 5612.23,172.454 5614,180.5C 5616.42,181.961 5618.92,183.294 5621.5,184.5C 5622.48,187.428 5622.82,190.428 5622.5,193.5C 5625.17,193.5 5627.83,193.5 5630.5,193.5C 5630.5,195.833 5630.5,198.167 5630.5,200.5C 5635.07,198.915 5639.74,198.081 5644.5,198C 5646.75,199.039 5648.91,200.206 5651,201.5C 5651.5,204.146 5651.66,206.813 5651.5,209.5C 5654.17,209.5 5656.83,209.5 5659.5,209.5C 5659.5,212.5 5659.5,215.5 5659.5,218.5C 5662.52,218.335 5665.52,218.502 5668.5,219C 5673.96,226.747 5679.29,234.58 5684.5,242.5C 5687.75,244.375 5690.92,246.375 5694,248.5C 5701.92,262.674 5710.58,276.34 5720,289.5C 5721.78,293.298 5722.62,297.298 5722.5,301.5C 5725.45,301.223 5728.28,301.556 5731,302.5C 5739.92,319.344 5748.59,336.344 5757,353.5C 5758.97,357.963 5759.81,362.629 5759.5,367.5C 5787.82,362.088 5815.15,353.588 5841.5,342C 5861.02,335.636 5881.02,331.636 5901.5,330C 5925.92,328.62 5950.25,326.453 5974.5,323.5C 5986.65,324.161 5998.48,326.494 6010,330.5C 6020.37,327.91 6030.87,327.077 6041.5,328C 6058.09,331.752 6074.75,335.085 6091.5,338C 6105.79,341.406 6119.79,345.739 6133.5,351C 6134.44,353.719 6134.78,356.552 6134.5,359.5C 6158.58,362.141 6181.08,369.474 6202,381.5C 6205.23,386.796 6208.06,392.296 6210.5,398C 6213.83,399.667 6217.17,401.333 6220.5,403C 6229.59,405.289 6238.59,407.789 6247.5,410.5C 6250.12,416.24 6253.12,421.74 6256.5,427C 6276.07,432.262 6291.41,443.262 6302.5,460C 6306.24,461.136 6309.91,462.47 6313.5,464C 6315.07,468.199 6316.73,472.366 6318.5,476.5C 6321.08,477.706 6323.58,479.039 6326,480.5C 6326.5,483.146 6326.66,485.813 6326.5,488.5C 6329.45,488.223 6332.28,488.556 6335,489.5C 6336.49,494.779 6337.65,500.112 6338.5,505.5C 6343.54,504.502 6347.7,505.835 6351,509.5C 6354.16,513.156 6356.83,517.156 6359,521.5C 6359.5,524.482 6359.66,527.482 6359.5,530.5C 6363.61,529.85 6367.11,530.85 6370,533.5C 6383,557.167 6396,580.833 6409,604.5C 6413.22,613.61 6416.89,622.943 6420,632.5C 6424.49,649.457 6428.82,666.457 6433,683.5C 6438.87,700.114 6444.54,716.781 6450,733.5C 6453.46,749.317 6455.46,765.317 6456,781.5C 6456.67,809.833 6456.67,838.167 6456,866.5C 6455.7,876.194 6455.03,885.861 6454,895.5C 6451.32,910.433 6449.15,925.433 6447.5,940.5C 6443.43,941.356 6439.43,942.523 6435.5,944C 6434.87,944.75 6434.37,945.584 6434,946.5C 6427.47,980.615 6418.14,1013.95 6406,1046.5C 6403.79,1053.37 6399.46,1058.37 6393,1061.5C 6387.01,1074.63 6381.51,1087.96 6376.5,1101.5C 6373.57,1102.48 6370.57,1102.82 6367.5,1102.5C 6360.6,1122.36 6352.43,1141.69 6343,1160.5C 6321.31,1189.87 6298.47,1218.37 6274.5,1246C 6267.17,1250.33 6259.83,1254.67 6252.5,1259C 6245.86,1266.64 6238.86,1273.97 6231.5,1281C 6228.52,1281.5 6225.52,1281.66 6222.5,1281.5C 6222.66,1284.52 6222.5,1287.52 6222,1290.5C 6213.37,1299.47 6203.87,1307.3 6193.5,1314C 6189.18,1314.5 6184.85,1314.67 6180.5,1314.5C 6180.66,1317.52 6180.5,1320.52 6180,1323.5C 6166.08,1332.88 6152.25,1342.38 6138.5,1352C 6132.39,1355.91 6125.72,1357.41 6118.5,1356.5C 6118.5,1359.5 6118.5,1362.5 6118.5,1365.5C 6100.79,1373.19 6084.13,1382.69 6068.5,1394C 6058.26,1399.71 6047.42,1403.87 6036,1406.5C 6033.84,1408.8 6032.18,1411.47 6031,1414.5C 6010.56,1426.3 5989.73,1437.47 5968.5,1448C 5921.5,1468.33 5874.5,1488.67 5827.5,1509C 5808.14,1516.01 5788.47,1522.01 5768.5,1527C 5762.83,1527.33 5757.17,1527.67 5751.5,1528C 5749.67,1532 5748.33,1536.17 5747.5,1540.5C 5731.02,1542.02 5714.69,1544.52 5698.5,1548C 5696.02,1550.62 5694.02,1553.62 5692.5,1557C 5685.25,1560.2 5677.91,1563.2 5670.5,1566C 5632.97,1577.47 5595.3,1588.47 5557.5,1599C 5532.61,1606.29 5508.28,1614.96 5484.5,1625C 5481.07,1628.04 5478.23,1631.54 5476,1635.5C 5446.78,1710.61 5418.11,1785.95 5390,1861.5C 5344.94,1976.61 5299.61,2091.61 5254,2206.5C 5237.86,2249.91 5221.53,2293.24 5205,2336.5C 5135.41,2514.26 5066.41,2692.26 4998,2870.5C 4982.28,2910.28 4966.28,2949.95 4950,2989.5C 4933.18,3035.29 4915.68,3080.79 4897.5,3126C 4908.52,3132.18 4919.86,3137.85 4931.5,3143C 4963.83,3155.33 4996.17,3167.67 5028.5,3180C 5031.44,3182.72 5033.78,3185.89 5035.5,3189.5C 5070.94,3204.22 5106.61,3218.39 5142.5,3232C 5155.01,3235.2 5167.67,3237.53 5180.5,3239C 5185.08,3241.7 5188.91,3245.2 5192,3249.5C 5193.32,3252.69 5193.82,3256.02 5193.5,3259.5C 5196.25,3259.19 5198.91,3259.52 5201.5,3260.5C 5212.53,3282.92 5218.86,3306.59 5220.5,3331.5C 5216.97,3396.03 5183.31,3433.36 5119.5,3443.5C 5109.53,3442.67 5099.87,3440.51 5090.5,3437C 5039.61,3416.06 4988.61,3395.39 4937.5,3375C 4927.1,3373.29 4918.6,3376.46 4912,3384.5C 4904.01,3404.98 4896.51,3425.64 4889.5,3446.5C 4908.77,3452.66 4928.1,3458.82 4947.5,3465C 4954.74,3468.2 4961.57,3472.03 4968,3476.5C 4970.67,3481.83 4973.33,3487.17 4976,3492.5C 4982,3495.33 4987.66,3498.66 4993,3502.5C 4995.55,3507.19 4997.05,3512.19 4997.5,3517.5C 5000.37,3518.21 5003.2,3518.87 5006,3519.5C 5011.92,3544.52 5011.92,3569.52 5006,3594.5C 5003.83,3601.85 5000.83,3608.85 4997,3615.5C 4985.62,3629.88 4972.12,3641.72 4956.5,3651C 4941.12,3659.14 4924.78,3662.14 4907.5,3660C 4894.53,3658.26 4881.87,3655.26 4869.5,3651C 4850.69,3643.76 4832.02,3636.26 4813.5,3628.5C 4810.26,3650.89 4803.59,3672.22 4793.5,3692.5C 4812.88,3698.68 4832.21,3705.18 4851.5,3712C 4891.83,3727.94 4932.16,3743.77 4972.5,3759.5C 4972.5,3762.5 4972.5,3765.5 4972.5,3768.5C 4975.17,3768.5 4977.83,3768.5 4980.5,3768.5C 4980.5,3771.17 4980.5,3773.83 4980.5,3776.5C 4983.52,3776.34 4986.52,3776.5 4989.5,3777C 4992.3,3780.8 4995.46,3784.3 4999,3787.5C 5004.49,3793.81 5006.66,3801.14 5005.5,3809.5C 5008.45,3809.22 5011.28,3809.56 5014,3810.5C 5015.26,3826.88 5017.76,3843.04 5021.5,3859C 5021.04,3863.9 5020.21,3868.73 5019,3873.5C 5014,3886.5 5009,3899.5 5004,3912.5C 4988.23,3948.24 4960.73,3967.74 4921.5,3971C 4901.74,3973.03 4882.4,3971.03 4863.5,3965C 4778.59,3932.81 4694.09,3899.64 4610,3865.5C 4609.09,3877.65 4604.93,3888.48 4597.5,3898C 4594.52,3898.5 4591.52,3898.66 4588.5,3898.5C 4587.5,3902.5 4586.5,3906.5 4585.5,3910.5C 4582.5,3910.5 4579.5,3910.5 4576.5,3910.5C 4575.06,3918.81 4573.73,3927.15 4572.5,3935.5C 4570.86,3935.29 4569.36,3935.62 4568,3936.5C 4568.31,3945.23 4565.65,3952.9 4560,3959.5C 4552.71,3965.45 4544.88,3970.62 4536.5,3975C 4511.45,3996.03 4482.45,4007.69 4449.5,4010C 4433.86,4011.41 4418.19,4011.74 4402.5,4011C 4380.17,4007.4 4358.17,4002.4 4336.5,3996C 4325.73,3991.56 4317.89,3984.06 4313,3973.5C 4312.5,3969.18 4312.33,3964.85 4312.5,3960.5C 4297.57,3958.42 4285.4,3951.42 4276,3939.5C 4245.15,3895.43 4234.15,3846.77 4243,3793.5C 4244.72,3784.01 4247.05,3774.68 4250,3765.5C 4261.39,3735.72 4273.06,3706.05 4285,3676.5C 4296.27,3644.01 4307.94,3611.68 4320,3579.5C 4397.71,3384.72 4474.04,3189.39 4549,2993.5C 4629.33,2791.5 4708,2588.83 4785,2385.5C 4828.47,2279.07 4869.97,2171.91 4909.5,2064C 4908.65,2061.23 4908.32,2058.4 4908.5,2055.5C 4911.5,2055.5 4914.5,2055.5 4917.5,2055.5C 4924.91,2027.44 4934.41,2000.1 4946,1973.5C 4946.5,1968.85 4946.67,1964.18 4946.5,1959.5C 4949.71,1959.99 4952.54,1959.32 4955,1957.5C 4955.74,1952.45 4956.74,1947.45 4958,1942.5C 4964.27,1924.01 4969.94,1905.35 4975,1886.5C 4977.48,1884.83 4980.31,1884 4983.5,1884C 4982.07,1880.56 4980.74,1877.06 4979.5,1873.5C 4982.43,1872.52 4985.43,1872.18 4988.5,1872.5C 4995.87,1852.02 5001.2,1831.02 5004.5,1809.5C 5007.19,1809.66 5009.85,1809.5 5012.5,1809C 5011.07,1805.56 5009.74,1802.06 5008.5,1798.5C 5011.43,1797.52 5014.43,1797.18 5017.5,1797.5C 5025.88,1772.96 5032.55,1747.96 5037.5,1722.5C 5040.5,1722.5 5043.5,1722.5 5046.5,1722.5C 5052.04,1702.71 5058.87,1683.38 5067,1664.5C 5067.5,1658.84 5067.67,1653.18 5067.5,1647.5C 5070.71,1647.99 5073.54,1647.32 5076,1645.5C 5080.29,1625.97 5086.96,1607.3 5096,1589.5C 5097.83,1580.88 5099.33,1572.21 5100.5,1563.5C 5103.45,1563.78 5106.28,1563.44 5109,1562.5C 5112.19,1542.92 5118.19,1524.25 5127,1506.5C 5128.73,1496.93 5127.73,1487.6 5124,1478.5C 5117.17,1466.17 5109.84,1454.17 5102,1442.5C 5100.76,1438.94 5100.26,1435.27 5100.5,1431.5C 5097.43,1431.82 5094.43,1431.48 5091.5,1430.5C 5082.87,1414.9 5075.03,1398.9 5068,1382.5C 5067.5,1379.52 5067.34,1376.52 5067.5,1373.5C 5064.43,1373.82 5061.43,1373.48 5058.5,1372.5C 5053.23,1355.15 5045.4,1339.15 5035,1324.5C 5025.68,1316.2 5019.68,1305.87 5017,1293.5C 5015.2,1288.29 5014.03,1282.96 5013.5,1277.5C 5010.43,1277.82 5007.43,1277.48 5004.5,1276.5C 5000.09,1264.28 4996.09,1251.94 4992.5,1239.5C 4989.22,1239.78 4986.06,1239.45 4983,1238.5C 4972.09,1212.68 4960.09,1187.35 4947,1162.5C 4943.39,1153.88 4941.56,1144.88 4941.5,1135.5C 4935.93,1134.3 4932.43,1130.97 4931,1125.5C 4914.71,1083.26 4897.04,1041.59 4878,1000.5C 4875.06,992.677 4872.73,984.677 4871,976.5C 4860.94,956.255 4854.27,934.922 4851,912.5C 4830.16,861.8 4817.16,809.134 4812,754.5C 4808.13,711.234 4805.46,667.901 4804,624.5C 4802.18,618.634 4801.02,612.634 4800.5,606.5C 4805.74,577.327 4809.91,547.994 4813,518.5C 4816.13,499.393 4819.8,480.393 4824,461.5C 4826.53,453.453 4829.86,445.786 4834,438.5C 4838,440.335 4842.17,441.668 4846.5,442.5C 4851.22,418.497 4859.22,395.664 4870.5,374C 4867.77,373.818 4865.11,373.318 4862.5,372.5C 4863.92,362.803 4866.59,353.469 4870.5,344.5C 4873.43,343.516 4876.43,343.183 4879.5,343.5C 4881.28,330.606 4886.78,319.606 4896,310.5C 4898.83,303.5 4901.67,296.5 4904.5,289.5C 4907.5,288.833 4910.5,288.167 4913.5,287.5C 4917.33,279.833 4921.17,272.167 4925,264.5C 4928.13,263.87 4931.3,263.204 4934.5,262.5C 4938.08,255.009 4941.91,247.676 4946,240.5C 4950.22,235.389 4955.56,232.056 4962,230.5C 4962.33,227.833 4962.67,225.167 4963,222.5C 4965.92,220.959 4968.75,219.293 4971.5,217.5C 4975.37,208.578 4981.03,201.078 4988.5,195C 4992.5,193 4996.5,191 5000.5,189C 5009.5,180.667 5018.5,172.333 5027.5,164C 5034.67,160.149 5042.34,158.649 5050.5,159.5C 5050.22,156.552 5050.56,153.719 5051.5,151C 5063.73,147.152 5075.39,142.152 5086.5,136C 5091.17,131.333 5095.83,126.667 5100.5,122C 5132.9,107.756 5166.23,96.0889 5200.5,87C 5232.73,82.4217 5264.73,77.2551 5296.5,71.5 Z M 5305.5,348.5 C 5319.92,348.571 5334.26,349.738 5348.5,352C 5363.8,355.268 5378.8,359.435 5393.5,364.5C 5393.5,362.167 5393.5,359.833 5393.5,357.5C 5397.31,358.16 5400.98,359.326 5404.5,361C 5402.67,365.004 5401.33,369.17 5400.5,373.5C 5415.05,375.626 5428.38,380.793 5440.5,389C 5454.96,401.128 5469.13,413.628 5483,426.5C 5483.5,430.821 5483.67,435.154 5483.5,439.5C 5486.52,439.335 5489.52,439.502 5492.5,440C 5505.36,454.202 5515.86,470.035 5524,487.5C 5545.83,537.973 5565.49,589.306 5583,641.5C 5590,658.833 5597,676.167 5604,693.5C 5609.09,707.256 5613.25,721.256 5616.5,735.5C 5626.74,735.018 5636.74,733.185 5646.5,730C 5679.25,714.796 5710.92,697.796 5741.5,679C 5748.46,675.622 5755.8,673.789 5763.5,673.5C 5763.5,670.5 5763.5,667.5 5763.5,664.5C 5771.79,662.524 5779.79,659.69 5787.5,656C 5811.26,644.452 5835.26,633.452 5859.5,623C 5874.18,617.327 5889.18,612.661 5904.5,609C 5927.91,605.147 5951.41,601.98 5975,599.5C 5981.93,600.109 5988.76,601.276 5995.5,603C 6003.17,605.611 6010.83,608.111 6018.5,610.5C 6018.5,607.833 6018.5,605.167 6018.5,602.5C 6032.36,603.676 6045.36,607.676 6057.5,614.5C 6058.48,617.428 6058.82,620.428 6058.5,623.5C 6069.91,625.018 6079.91,629.518 6088.5,637C 6094.04,641.842 6099.21,647.009 6104,652.5C 6107.9,657.642 6110.74,663.309 6112.5,669.5C 6115.52,669.335 6118.52,669.502 6121.5,670C 6124.13,674.755 6126.63,679.588 6129,684.5C 6132,685.167 6135,685.833 6138,686.5C 6139.49,691.779 6140.65,697.112 6141.5,702.5C 6144.5,702.5 6147.5,702.5 6150.5,702.5C 6150.5,705.167 6150.5,707.833 6150.5,710.5C 6153.45,710.223 6156.28,710.556 6159,711.5C 6160.72,720.333 6163.06,728.999 6166,737.5C 6171,743.833 6176,750.167 6181,756.5C 6182.44,758.275 6183.44,760.275 6184,762.5C 6189.25,801.792 6186.25,840.458 6175,878.5C 6163.49,916.187 6148.66,952.521 6130.5,987.5C 6127.5,988.167 6124.5,988.833 6121.5,989.5C 6119.85,994.762 6118.52,1000.1 6117.5,1005.5C 6114.5,1005.5 6111.5,1005.5 6108.5,1005.5C 6106.94,1021.76 6098.94,1033.93 6084.5,1042C 6081.78,1042.27 6079.11,1042.77 6076.5,1043.5C 6075.51,1047.45 6075.18,1051.45 6075.5,1055.5C 6070.27,1055.3 6065.61,1056.8 6061.5,1060C 6049.17,1071.67 6036.83,1083.33 6024.5,1095C 6015.86,1102.32 6006.53,1108.66 5996.5,1114C 5974.91,1133.97 5950.25,1149.14 5922.5,1159.5C 5921.52,1162.43 5921.18,1165.43 5921.5,1168.5C 5914.58,1169.4 5907.92,1171.23 5901.5,1174C 5860.19,1197.66 5817.52,1218.66 5773.5,1237C 5737.19,1249.55 5701.19,1262.88 5665.5,1277C 5653.57,1281.14 5641.57,1284.98 5629.5,1288.5C 5629.5,1291.5 5629.5,1294.5 5629.5,1297.5C 5617.63,1296.79 5605.96,1297.95 5594.5,1301C 5537.83,1318.67 5481.17,1336.33 5424.5,1354C 5409.86,1359.06 5394.86,1362.06 5379.5,1363C 5374.67,1360.83 5371.17,1357.33 5369,1352.5C 5366.32,1345.74 5364.65,1338.74 5364,1331.5C 5361.26,1330.72 5358.43,1330.22 5355.5,1330C 5345.94,1316.38 5338.94,1301.55 5334.5,1285.5C 5331.5,1284.83 5328.5,1284.17 5325.5,1283.5C 5319.41,1272.22 5315.74,1260.22 5314.5,1247.5C 5311.5,1247.5 5308.5,1247.5 5305.5,1247.5C 5304.17,1240.5 5302.83,1233.5 5301.5,1226.5C 5298.43,1226.82 5295.43,1226.48 5292.5,1225.5C 5286.09,1213.94 5282.09,1201.61 5280.5,1188.5C 5277.43,1188.82 5274.43,1188.48 5271.5,1187.5C 5256.9,1164.37 5243.73,1140.37 5232,1115.5C 5227.92,1105.43 5224.75,1095.1 5222.5,1084.5C 5218.97,1085.01 5215.8,1084.34 5213,1082.5C 5211.53,1077.76 5209.86,1073.09 5208,1068.5C 5153.07,960.371 5112.4,847.038 5086,728.5C 5070.74,640.549 5081.24,555.882 5117.5,474.5C 5120.43,473.516 5123.43,473.183 5126.5,473.5C 5126.33,468.821 5126.5,464.155 5127,459.5C 5138.89,439.602 5153.72,422.102 5171.5,407C 5177.57,404.215 5183.41,401.048 5189,397.5C 5191.34,391.146 5192.84,384.646 5193.5,378C 5201.57,376.72 5209.57,375.053 5217.5,373C 5245.34,358.99 5274.68,350.823 5305.5,348.5 Z"/></g>
<g><path style="opacity:1" fill="#5c321e" d="M 2041.5,1188.5 C 2151.83,1188.5 2262.17,1188.5 2372.5,1188.5C 2372.5,1365.17 2372.5,1541.83 2372.5,1718.5C 2527.83,1718.5 2683.17,1718.5 2838.5,1718.5C 2838.5,1822.83 2838.5,1927.17 2838.5,2031.5C 2683.17,2031.5 2527.83,2031.5 2372.5,2031.5C 2373.14,2224.83 2373.98,2418.17 2375,2611.5C 2375.19,2619.28 2376.19,2626.94 2378,2634.5C 2382.51,2647.18 2387.84,2659.52 2394,2671.5C 2409.25,2683.81 2426.75,2689.97 2446.5,2690C 2561.84,2691.13 2677.17,2692.29 2792.5,2693.5C 2792.5,2797.83 2792.5,2902.17 2792.5,3006.5C 2601.84,3007.71 2411.17,3008.21 2220.5,3008C 2164.28,3003.64 2118.11,2980.14 2082,2937.5C 2055.41,2902.08 2041.75,2862.08 2041,2817.5C 2041.41,2555.5 2041.57,2293.5 2041.5,2031.5C 1913.83,2031.5 1786.17,2031.5 1658.5,2031.5C 1658.5,1927.17 1658.5,1822.83 1658.5,1718.5C 1786.17,1718.5 1913.83,1718.5 2041.5,1718.5C 2041.5,1541.83 2041.5,1365.17 2041.5,1188.5 Z"/></g>
<g><path style="opacity:1" fill="#5c321e" d="M 3496.5,1188.5 C 3606.5,1188.5 3716.5,1188.5 3826.5,1188.5C 3826.5,1365.17 3826.5,1541.83 3826.5,1718.5C 3982.17,1718.5 4137.83,1718.5 4293.5,1718.5C 4293.5,1822.83 4293.5,1927.17 4293.5,2031.5C 4137.83,2031.5 3982.17,2031.5 3826.5,2031.5C 3827.18,2228.5 3828.35,2425.5 3830,2622.5C 3833.51,2640.2 3839.85,2656.87 3849,2672.5C 3864.13,2684.1 3881.3,2689.93 3900.5,2690C 4016.17,2691.13 4131.84,2692.3 4247.5,2693.5C 4247.5,2797.83 4247.5,2902.17 4247.5,3006.5C 4056.5,3007.71 3865.5,3008.21 3674.5,3008C 3618.86,3003.77 3573.03,2980.6 3537,2938.5C 3513.05,2906.9 3499.38,2871.24 3496,2831.5C 3495.26,2564.83 3495.42,2298.17 3496.5,2031.5C 3368.5,2031.5 3240.5,2031.5 3112.5,2031.5C 3112.5,1927.17 3112.5,1822.83 3112.5,1718.5C 3240.5,1718.5 3368.5,1718.5 3496.5,1718.5C 3496.5,1541.83 3496.5,1365.17 3496.5,1188.5 Z"/></g>
<g><path style="opacity:1" fill="#5c321e" d="M 686.5,1674.5 C 770.639,1669.89 849.973,1687.06 924.5,1726C 973.138,1753.3 1011.97,1790.8 1041,1838.5C 1045.92,1846.67 1050.59,1855.01 1055,1863.5C 1055.5,1866.48 1055.66,1869.48 1055.5,1872.5C 1070.5,1872.5 1085.5,1872.5 1100.5,1872.5C 1100.5,1821.17 1100.5,1769.83 1100.5,1718.5C 1210.5,1718.5 1320.5,1718.5 1430.5,1718.5C 1430.83,2021.85 1432,2325.18 1434,2628.5C 1435.73,2642.69 1440.06,2656.02 1447,2668.5C 1460.77,2681.8 1477.27,2689.3 1496.5,2691C 1514.85,2691.95 1533.18,2692.78 1551.5,2693.5C 1551.5,2797.83 1551.5,2902.17 1551.5,3006.5C 1476.66,3006.98 1401.83,3007.65 1327,3008.5C 1267.77,3010.54 1215.94,2992.37 1171.5,2954C 1145.82,2926.13 1130.15,2893.3 1124.5,2855.5C 1122.95,2844.86 1121.61,2834.19 1120.5,2823.5C 1107.09,2820.05 1094.09,2821.22 1081.5,2827C 1077.95,2830.88 1074.78,2835.05 1072,2839.5C 1030.78,2938.38 958.283,3001.21 854.5,3028C 725.895,3060.42 600.895,3050.09 479.5,2997C 446.387,2981.17 415.387,2962.17 386.5,2940C 350.481,2911.32 316.981,2879.82 286,2845.5C 231.581,2777.66 193.248,2701.33 171,2616.5C 153.871,2551.26 144.204,2484.93 142,2417.5C 138.671,2337.73 143.004,2258.4 155,2179.5C 179.506,2023.24 251.339,1894.07 370.5,1792C 463.72,1720.97 569.053,1681.81 686.5,1674.5 Z M 763.5,1995.5 C 819.257,1992.62 872.924,2001.79 924.5,2023C 1012.08,2067.61 1066.25,2138.11 1087,2234.5C 1099.24,2288.86 1103.57,2343.86 1100,2399.5C 1098.37,2453.67 1087.03,2505.67 1066,2555.5C 1040.33,2610.51 1001.83,2654.35 950.5,2687C 902.261,2715.27 850.095,2729.1 794,2728.5C 736.266,2729.76 681.766,2717.26 630.5,2691C 586.05,2666.22 551.217,2631.72 526,2587.5C 496.795,2535.69 480.461,2480.02 477,2420.5C 472.455,2363.54 474.789,2306.87 484,2250.5C 494.444,2192.76 517.777,2141.1 554,2095.5C 611.035,2035.74 680.868,2002.4 763.5,1995.5 Z"/></g>
<g><path style="opacity:1" fill="#5c321e" d="M 6405.5,1675.5 C 6514.89,1673.28 6619.89,1693.45 6720.5,1736C 6843.82,1791.65 6937.99,1878.82 7003,1997.5C 7030.93,2049.95 7050.93,2105.28 7063,2163.5C 7064.44,2172.79 7064.78,2182.13 7064,2191.5C 7063.75,2192.62 7063.25,2193.62 7062.5,2194.5C 7033.71,2203.71 7004.71,2212.21 6975.5,2220C 6903.21,2238.82 6830.88,2257.49 6758.5,2276C 6751.55,2277.23 6744.55,2277.73 6737.5,2277.5C 6722.92,2195.17 6685.92,2125 6626.5,2067C 6593.3,2040.74 6555.97,2022.4 6514.5,2012C 6475.1,2001.92 6435.1,1998.59 6394.5,2002C 6328.21,2004.65 6267.88,2024.65 6213.5,2062C 6200.45,2072.72 6187.12,2083.05 6173.5,2093C 6133.39,2131.02 6105.89,2176.85 6091,2230.5C 6068.46,2313.11 6065.46,2396.44 6082,2480.5C 6091.33,2526.47 6110.33,2567.81 6139,2604.5C 6195.82,2672 6268.32,2710.83 6356.5,2721C 6412.69,2727.46 6468.36,2724.46 6523.5,2712C 6596.47,2692.99 6651.3,2650.82 6688,2585.5C 6711.12,2543.32 6727.62,2498.65 6737.5,2451.5C 6757.05,2453.26 6776.39,2456.43 6795.5,2461C 6882.63,2482.53 6969.63,2504.53 7056.5,2527C 7063,2529.05 7065.34,2533.55 7063.5,2540.5C 7059.69,2594.39 7046.19,2645.72 7023,2694.5C 6943.72,2859.43 6816.22,2967.93 6640.5,3020C 6474.44,3064.38 6310.11,3058.72 6147.5,3003C 6046.14,2967.44 5959.31,2910.27 5887,2831.5C 5825.8,2760.78 5783.13,2679.78 5759,2588.5C 5719.74,2434.99 5722.74,2282.32 5768,2130.5C 5810.47,1989.76 5892.3,1878.26 6013.5,1796C 6116.03,1728.6 6228.7,1689.6 6351.5,1679C 6369.64,1677.57 6387.64,1676.41 6405.5,1675.5 Z"/></g>
</svg>
